<svg preserveAspectRatio="none" width="100%" height="100%" overflow="visible" style="display: block;" viewBox="0 0 86.1091 64" fill="none" xmlns="http://www.w3.org/2000/svg">
<g id="Frame" clip-path="url(#clip0_0_11)">
<path id="Vector" fill-rule="evenodd" clip-rule="evenodd" d="M41.7225 3.75759C41.7233 4.26561 41.6203 4.76846 41.4198 5.23544C41.2194 5.70242 40.9256 6.12373 40.5565 6.47364L42.421 9.31331C42.8295 9.16553 43.2606 9.09017 43.6951 9.09063C44.1529 9.09025 44.6068 9.17406 45.0342 9.33786L47.2466 5.91868C46.8843 5.65084 46.5951 5.29665 46.4054 4.88849C46.2156 4.48033 46.1315 4.03123 46.1606 3.58225C46.1901 3.13313 46.3322 2.6986 46.5739 2.31855C46.8155 1.9385 47.149 1.62511 47.5436 1.40712C48.1397 1.07725 48.8384 0.983743 49.5005 1.14528C50.1625 1.30681 50.7392 1.7115 51.1154 2.27858C51.3641 2.65468 51.5134 3.08603 51.5512 3.53403L56.8777 4.57732C57.0051 4.18195 57.2391 3.82917 57.554 3.5576C57.8689 3.28604 58.2526 3.10615 58.6631 3.03762C59.0737 2.96909 59.4952 3.01458 59.8815 3.16909C60.2679 3.3236 60.6042 3.58118 60.8536 3.91364C61.1875 4.35901 61.3431 4.9131 61.293 5.46542L65.725 6.33337C65.9307 6.18294 66.1708 6.08599 66.4235 6.05127C66.6763 6.01654 66.9337 6.04514 67.1726 6.13448C67.4114 6.22381 67.6243 6.37108 67.7918 6.56299C67.9594 6.7549 68.0765 6.98542 68.1325 7.23375C68.2162 7.60906 68.1547 8.00206 67.9603 8.33404C67.7659 8.66602 67.453 8.91246 67.0842 9.024C66.8399 9.09858 66.5808 9.11123 66.3304 9.06082L65.1433 10.9195C65.457 11.2526 65.681 11.6594 65.7944 12.1013L71.134 12.1381C71.2309 11.8105 71.4012 11.5092 71.6319 11.2569C71.8627 11.0046 72.1479 10.808 72.4661 10.6819C72.9459 10.4916 73.4764 10.4702 73.9702 10.6211C74.4639 10.772 74.8913 11.0863 75.182 11.5121C75.4712 11.9381 75.6056 12.4501 75.5627 12.9629C75.5199 13.4757 75.3024 13.9584 74.9465 14.3307L78.0675 18.7222C78.7912 18.4925 79.5726 18.5233 80.2759 18.8093C80.9791 19.0952 81.5595 19.6182 81.9161 20.2871C82.2716 20.9561 82.3793 21.7287 82.2202 22.4691C82.0611 23.2095 81.6454 23.8702 81.0462 24.3349C80.6488 24.6439 80.1847 24.8564 79.6907 24.9553C79.1967 25.0542 78.6864 25.0369 78.2002 24.9048L76.1942 28.9622C76.7753 29.4067 77.1657 30.0547 77.2864 30.7752L81.4117 30.8033C81.5076 30.3274 81.7549 29.8952 82.1168 29.5709C82.4787 29.2465 82.9359 29.0475 83.4204 29.0034C83.9047 28.9582 84.3908 29.0696 84.8069 29.3211C85.223 29.5725 85.547 29.9508 85.7313 30.4C85.9145 30.849 85.9474 31.345 85.8252 31.8142C85.703 32.2834 85.4321 32.7007 85.0529 33.0038C84.6735 33.308 84.2061 33.4824 83.7197 33.5012C83.2333 33.52 82.7538 33.3822 82.3519 33.1082L75.0432 38.9725C75.1846 39.2552 75.2649 39.5644 75.2787 39.8801C75.2926 40.1958 75.2397 40.5109 75.1235 40.8048C75.0073 41.0988 74.8304 41.365 74.6044 41.5863C74.3783 41.8076 74.1081 41.9789 73.8113 42.0892C73.3638 42.256 72.8749 42.2777 72.4143 42.1513C71.9537 42.0249 71.5447 41.7569 71.2456 41.3852C71.0477 41.1387 70.904 40.8535 70.8238 40.5479L66.0738 40.5155C65.9392 41.2354 65.5396 41.879 64.9535 42.3198C64.3667 42.7613 63.636 42.9685 62.9043 42.9009C62.1725 42.8332 61.4924 42.4957 60.9969 41.9542C60.5233 41.4369 60.2512 40.7673 60.23 40.067C60.2087 39.3667 60.4396 38.682 60.8809 38.137C61.3022 37.6154 61.8893 37.253 62.5451 37.1095L62.6013 33.9428C62.0369 33.7423 61.5375 33.3927 61.1564 32.9314C60.7753 32.4701 60.5267 31.9143 60.4371 31.3232C60.3483 30.7322 60.4224 30.1282 60.6515 29.576C60.8806 29.0238 61.256 28.5443 61.7376 28.1889L59.9161 24.8004C59.5422 24.9447 59.1448 25.0184 58.744 25.0179C58.3969 25.0179 58.0525 24.9635 57.723 24.8548L55.5368 28.4537C56.0179 28.851 56.3782 29.3745 56.5772 29.9651C56.7763 30.5557 56.8061 31.19 56.6633 31.7966C56.5201 32.4035 56.2098 32.9585 55.7673 33.3987C55.3248 33.839 54.7678 34.1471 54.1591 34.2882L54.1152 36.7825C54.5917 36.8895 55.0383 37.101 55.4227 37.4017C55.8071 37.7024 56.1195 38.0848 56.3373 38.521C56.5548 38.9573 56.6718 39.4366 56.6798 39.9238C56.6877 40.4111 56.5863 40.8939 56.383 41.337C56.1798 41.7801 55.8798 42.1723 55.505 42.4847C55.1303 42.7972 54.6902 43.0221 54.2171 43.143C53.7439 43.2651 53.2494 43.2806 52.7695 43.1884C52.2896 43.0963 51.8362 42.8987 51.4423 42.61L44.7925 49.3431C45.0188 49.7436 45.1166 50.2037 45.073 50.6614C45.0293 51.119 44.8462 51.5524 44.5483 51.9031C44.2501 52.2547 43.8515 52.5071 43.4057 52.6265C42.9599 52.7459 42.4882 52.7266 42.0537 52.5712L38.5514 56.3524C38.7686 56.6696 38.9008 57.0369 38.9356 57.4194C38.9705 57.8019 38.9066 58.187 38.7503 58.538C38.5939 58.889 38.3501 59.1942 38.0422 59.4247C37.7343 59.6552 37.3723 59.8033 36.9909 59.8549C36.532 59.918 36.0647 59.8395 35.6518 59.63C35.2389 59.4205 34.9001 59.0899 34.6809 58.6827L31.1126 59.3245C31.1918 59.8596 31.1545 60.4054 31.0031 60.9247C30.8517 61.4441 30.5899 61.9247 30.2355 62.334C29.881 62.7432 29.4423 63.0714 28.9493 63.2961C28.4562 63.5208 27.9204 63.6368 27.3783 63.6362C26.8832 63.6367 26.3929 63.54 25.9352 63.3515C25.4776 63.1629 25.0617 62.8863 24.7113 62.5374C24.3608 62.1884 24.0827 61.774 23.8928 61.3178C23.7029 60.8616 23.6049 60.3726 23.6044 59.8786C23.6039 59.2164 23.7792 58.5658 24.1124 57.9931C24.4456 57.4204 24.9249 56.946 25.5015 56.6181L24.4233 53.1524C24.0485 53.2724 23.6572 53.3334 23.2635 53.333C22.7455 53.3336 22.233 53.2277 21.7578 53.0219C21.2827 52.816 20.8552 52.5147 20.5019 52.1368C20.1486 51.7588 19.8772 51.3122 19.7045 50.8249C19.5319 50.3376 19.4617 49.8201 19.4984 49.3045L17.0645 49.1757C16.8811 49.6315 16.5956 50.0395 16.23 50.3685C15.8644 50.6974 15.4282 50.9387 14.9549 51.0738C14.2407 51.2779 13.478 51.2315 12.7941 50.9422C12.1102 50.6529 11.5463 50.1383 11.1968 49.4843C10.8487 48.8304 10.7373 48.0768 10.8812 47.3505C11.025 46.6241 11.4155 45.9695 11.9867 45.497L9.97899 42.098C9.51313 42.2647 9.00542 42.275 8.53319 42.1271C8.06095 41.9793 7.6501 41.6815 7.36321 41.2791C7.07721 40.8769 6.93151 40.392 6.94849 39.8991C6.96548 39.4062 7.14421 38.9325 7.45722 38.5508L3.33189 32.9495C2.84127 33.1785 2.28467 33.2248 1.76281 33.0799C1.24096 32.935 0.788313 32.6086 0.48678 32.1596C0.28724 31.862 0.16172 31.5212 0.120636 31.1654C0.0795535 30.8097 0.124093 30.4494 0.250559 30.1143C0.377024 29.7792 0.581767 29.479 0.847794 29.2387C1.11382 28.9984 1.43346 28.8249 1.78017 28.7325C2.12671 28.6392 2.49048 28.6293 2.8416 28.7036C2.84444 28.685 2.84825 28.6665 2.85302 28.6483L3.896 24.5313C3.4363 24.246 3.05569 23.8502 2.78904 23.3801C2.5224 22.9101 2.37823 22.3807 2.36976 21.8407C2.36197 21.3004 2.49061 20.7669 2.74383 20.2893C2.99705 19.8118 3.36669 19.4055 3.81867 19.1079C4.50113 18.6574 5.32902 18.4809 6.13642 18.6137C6.94382 18.7466 7.67108 19.1789 8.17245 19.8242C8.50459 20.2512 8.7225 20.7544 8.80773 21.2883L14.4488 21.1445C14.5857 20.5484 14.9076 20.0106 15.3687 19.6077L12.4164 14.9436C11.8647 15.0999 11.2742 15.0419 10.7636 14.7813C10.253 14.5207 9.86029 14.0769 9.66443 13.5391C9.53567 13.183 9.49909 12.8002 9.55807 12.4263C9.61705 12.0523 9.76969 11.6993 10.0018 11.3999C10.234 11.0997 10.5382 10.8628 10.8863 10.7108C11.2344 10.5588 11.6153 10.4967 11.9938 10.5302C12.3723 10.5633 12.7363 10.6908 13.0526 10.901C13.0649 10.8868 13.0781 10.8734 13.0921 10.8607L16.4328 7.71331C16.2985 7.28293 16.3231 6.81882 16.5019 6.40492C16.6808 5.99102 17.0023 5.65465 17.4081 5.45666C17.8139 5.25803 18.2773 5.21 18.7154 5.32116C19.1534 5.43231 19.5375 5.69541 19.7989 6.06334C19.9719 6.30722 20.0843 6.58854 20.1271 6.88421C20.1698 7.17988 20.1417 7.48146 20.045 7.76416C20.1012 7.79748 20.1522 7.84131 20.1961 7.89567L22.1397 10.3005C22.7481 10.026 23.4361 9.98323 24.0739 10.1803C24.7117 10.3773 25.2552 10.8006 25.6016 11.3701C25.9475 11.9396 26.0711 12.6162 25.9488 13.2709C25.8264 13.9255 25.4667 14.5122 24.9382 14.919L26.6833 18.738C27.4202 18.491 28.2215 18.5163 28.9414 18.8091C29.6612 19.102 30.2518 19.6429 30.6056 20.3336C30.9584 21.0245 31.0493 21.8192 30.8615 22.5717C30.6738 23.3241 30.22 23.9835 29.5837 24.4287C29.162 24.7248 28.6757 24.9162 28.165 24.9873C27.6543 25.0583 27.134 25.0069 26.6472 24.8373L24.2828 28.6983C24.8491 29.2953 25.1643 30.0864 25.1632 30.9085C25.1632 31.3162 25.0859 31.7195 24.9347 32.0973L30.0626 37.305C30.0934 37.3363 30.1205 37.371 30.1435 37.4084C30.6341 37.0362 31.2214 36.812 31.8358 36.7623L31.9131 34.1471C31.0878 34.0239 30.3395 33.5947 29.8175 32.9451C29.2963 32.2961 29.0405 31.4745 29.1014 30.6451C29.1624 29.8157 29.5356 29.04 30.1461 28.4739C30.7575 27.9068 31.5607 27.5906 32.3955 27.5884C33.1634 27.5884 33.9068 27.8532 34.4999 28.3388C35.0924 28.824 35.4975 29.4997 35.6456 30.2501L39.8896 30.3886C39.9651 29.9398 40.1376 29.5128 40.3951 29.1372C40.6526 28.7616 40.9889 28.4464 41.3807 28.2135C41.7725 27.98 42.2103 27.8339 42.6641 27.7854C43.1178 27.7369 43.5767 27.7871 44.0092 27.9325C44.4417 28.0779 44.8374 28.315 45.1692 28.6276C45.501 28.9402 45.761 29.3209 45.9313 29.7433C46.1006 30.1657 46.1757 30.6197 46.1514 31.0739C46.1271 31.5281 46.0041 31.9715 45.7907 32.3735C45.8213 32.3947 45.8499 32.4188 45.8759 32.4454L50.9652 37.7696C51.4835 37.2031 52.1847 36.836 52.9465 36.7325L52.9878 34.3513C52.5188 34.2947 52.0669 34.1401 51.6616 33.8976C51.2564 33.6552 50.9068 33.3304 50.6357 32.9442C50.3651 32.5583 50.1794 32.1196 50.0907 31.657C50.002 31.1944 50.0122 30.7183 50.1208 30.2599C50.2294 29.8016 50.4339 29.3713 50.7209 28.9973C51.0078 28.6233 51.3707 28.3141 51.7858 28.0899C52.2013 27.8649 52.6596 27.7298 53.1308 27.6932C53.6021 27.6566 54.0758 27.7195 54.5211 27.8777L56.6984 24.2928C56.3176 23.9845 56.0122 23.5936 55.8056 23.1498C55.5989 22.7061 55.4964 22.2211 55.5058 21.7319C55.5152 21.2426 55.6363 20.7619 55.8598 20.3264C56.0834 19.8909 56.4036 19.5119 56.796 19.2184L54.8928 15.6818C54.288 15.909 53.627 15.9415 53.0028 15.7747L50.5513 19.4551C51.1174 19.9904 51.4702 20.712 51.5447 21.4866C51.6191 22.2612 51.4102 23.0366 50.9564 23.6695C50.6549 24.0893 50.2569 24.4309 49.7958 24.6655C49.3347 24.9001 48.8239 25.021 48.3063 25.0179C47.7887 25.0153 47.2792 24.8893 46.8204 24.6503C46.3615 24.4113 45.9666 24.0663 45.6686 23.6441C45.3716 23.222 45.1805 22.7349 45.1115 22.2238L41.7831 22.1142C41.7071 23.0575 41.2777 23.9376 40.5804 24.579C39.8831 25.2205 38.9691 25.5763 38.0207 25.5755C37.5255 25.576 37.0352 25.4793 36.5775 25.2908C36.1198 25.1022 35.7039 24.8256 35.3534 24.4767C35.0028 24.1278 34.7246 23.7134 34.5346 23.2572C34.3446 22.801 34.2465 22.3119 34.2459 21.8179C34.2455 21.209 34.3937 20.6092 34.6779 20.0704C34.962 19.5317 35.3735 19.0701 35.8767 18.7257L34.1308 16.0658C33.2808 16.3663 32.3475 16.3292 31.5243 15.9619C30.701 15.5947 30.0509 14.9256 29.7085 14.0932C29.4453 13.4507 29.3804 12.7445 29.522 12.0651C29.6637 11.3856 30.0055 10.7638 30.5037 10.2795L27.9266 6.58674C27.4957 6.68343 27.0458 6.65257 26.6322 6.49793C26.2186 6.34329 25.8592 6.0716 25.5981 5.71616C25.4032 5.45045 25.2692 5.14532 25.2054 4.82227C25.1416 4.49923 25.1496 4.16616 25.2288 3.84654C25.3081 3.52693 25.4567 3.22856 25.6641 2.97248C25.8716 2.71641 26.1328 2.50887 26.4293 2.36449C26.826 2.17027 27.2709 2.09585 27.7093 2.15036C28.1478 2.20487 28.5607 2.38594 28.8975 2.67134C29.234 2.95715 29.4792 3.33501 29.6022 3.75671H34.173C34.1736 3.26272 34.2717 2.77369 34.4617 2.31753C34.6517 1.86138 34.9299 1.44704 35.2805 1.09819C35.631 0.749334 36.047 0.472795 36.5046 0.284366C36.9623 0.0959371 37.4527 -0.000691228 37.9477 0C38.4429 -0.000575993 38.9333 0.0961601 39.3909 0.284685C39.8486 0.47321 40.2646 0.749831 40.6151 1.09876C40.9656 1.44768 41.2438 1.86207 41.4338 2.31828C41.6238 2.77448 41.7219 3.26356 41.7225 3.75759ZM28.9687 6.03967C29.2938 5.73984 29.5231 5.35058 29.6286 4.92099H34.3575C34.6054 5.67585 35.0861 6.33321 35.7309 6.79913C36.3757 7.26504 37.1516 7.51566 37.9477 7.51518C38.5189 7.51518 39.083 7.38718 39.597 7.13819L41.3965 9.88055C40.9519 10.227 40.5922 10.6699 40.3448 11.1758C40.0974 11.6817 39.9688 12.2371 39.9687 12.8C39.9693 13.2876 40.0661 13.7703 40.2536 14.2205C40.4411 14.6708 40.7157 15.0798 41.0617 15.4241C41.4076 15.7685 41.8182 16.0415 42.2699 16.2275C42.7215 16.4136 43.2055 16.5091 43.6942 16.5085C44.6812 16.5097 45.6282 16.1196 46.3271 15.4242C47.0259 14.7287 47.4192 13.7848 47.4206 12.8C47.4214 12.2485 47.2983 11.7037 47.0605 11.2058C46.8227 10.7079 46.4762 10.2695 46.0464 9.92263L48.3265 6.39649C48.9576 6.52149 49.6126 6.4184 50.1744 6.10566C50.7362 5.79293 51.1682 5.29095 51.3931 4.68953L56.825 5.75211C56.9137 6.14926 57.1097 6.51485 57.3908 6.8103L55.268 10.0892C54.5811 9.7201 53.78 9.62304 53.0246 9.81741C52.2692 10.0118 51.615 10.4833 51.1927 11.1378C50.7717 11.7921 50.6148 12.5813 50.7538 13.3463C50.8927 14.1114 51.317 14.7956 51.9414 15.2609L49.5716 18.8186C48.9165 18.5459 48.19 18.495 47.5031 18.6736C46.8163 18.8522 46.207 19.2505 45.7687 19.8076C45.4788 20.1758 45.2732 20.6045 45.166 21.0613L41.6926 20.9473C41.5729 20.4491 41.3527 19.9806 41.0453 19.5703C40.7379 19.16 40.3499 18.8166 39.9049 18.561C39.46 18.3055 38.9675 18.1432 38.4575 18.0841C37.9475 18.025 37.4309 18.0703 36.939 18.2172L35.1527 15.4959C35.8214 14.9614 36.2702 14.2005 36.4138 13.3578C36.5575 12.515 36.3861 11.6489 35.9321 10.9238C35.4755 10.199 34.7689 9.66585 33.9456 9.4249C33.1222 9.18395 32.239 9.25184 31.4623 9.61578L28.9669 6.03967H28.9687ZM55.8892 15.0698L57.8416 18.6968C58.5454 18.4938 59.2973 18.5344 59.9751 18.8118C60.6529 19.0892 61.2168 19.5872 61.575 20.2249C61.9318 20.8625 62.0605 21.6023 61.9401 22.3226C61.8197 23.0429 61.4573 23.7009 60.9125 24.1885L62.7841 27.6708C63.3793 27.4976 64.0112 27.4942 64.6082 27.6612L67.5939 23.3916C67.327 23.1273 67.1306 22.8007 67.0223 22.4414C66.914 22.0822 66.8973 21.7016 66.9738 21.3343C67.0502 20.967 67.2174 20.6246 67.4601 20.338C67.7028 20.0515 68.0133 19.83 68.3636 19.6936C68.8333 19.5103 69.3509 19.4884 69.8345 19.6313L72.0021 14.6472L72.0109 14.6253C71.5566 14.3095 71.234 13.8385 71.1041 13.3015L65.8357 13.2655C65.734 13.818 65.463 14.3253 65.0601 14.7176C64.6572 15.1099 64.1423 15.3677 63.5863 15.4556C63.0308 15.5443 62.4614 15.4598 61.9558 15.2136C61.4502 14.9674 61.0331 14.5715 60.7614 14.08C60.4904 13.5885 60.3791 13.0252 60.4426 12.4679C60.5062 11.9106 60.7416 11.3867 61.1164 10.9685C61.4912 10.5495 61.9868 10.2563 62.5352 10.1293C63.0835 10.0024 63.6579 10.0477 64.1794 10.2593L65.3594 8.41293C65.1573 8.11485 65.0695 7.7554 65.109 7.39858L60.8791 6.57096C60.6697 6.86351 60.3932 7.10185 60.0726 7.2661C59.7521 7.43035 59.3969 7.51575 59.0366 7.51518C58.8107 7.51518 58.5928 7.48186 58.3863 7.42049L56.1791 10.8309C56.6422 11.3832 56.8944 12.0811 56.8935 12.8C56.894 13.2274 56.8049 13.6502 56.6319 14.0413C56.459 14.4323 56.206 14.783 55.8892 15.0707V15.0698ZM73.3069 15.0295C73.5292 15.0295 73.7436 14.9979 73.9466 14.9383L77.0298 19.2772C76.3843 19.7905 75.9607 20.5314 75.8463 21.3471L71.4055 21.3173C71.3184 20.9158 71.1227 20.5459 70.8397 20.2477L73.075 15.1101C73.0872 15.0814 73.0972 15.0518 73.1049 15.0216C73.1716 15.0268 73.2384 15.0295 73.3069 15.0295ZM66.0562 39.3521C65.9329 38.7867 65.6448 38.2703 65.2281 37.8679C64.8115 37.4654 64.2849 37.1949 63.7146 37.0902L63.7664 34.1322C64.5192 34.1202 65.2455 33.8531 65.826 33.3747C66.4056 32.8968 66.8046 32.2359 66.9568 31.5011L71.5435 31.5318C71.6102 32.2087 71.916 32.8408 72.4054 33.3151C72.7713 33.6695 73.2243 33.9215 73.7189 34.0455C74.2134 34.1696 74.732 34.1615 75.2223 34.0219C75.7127 33.8824 76.1576 33.6163 76.5121 33.2506C76.8666 32.8848 77.1182 32.4323 77.2416 31.9386L81.4856 31.9676C81.5145 32.0552 81.5497 32.1412 81.5901 32.2244L74.2691 38.0984C73.9701 37.9012 73.6286 37.7773 73.2725 37.737C72.9164 37.6967 72.5558 37.7411 72.2202 37.8666C71.8845 37.992 71.5835 38.195 71.3415 38.4588C71.0996 38.7226 70.9237 39.0399 70.8282 39.3845L66.0562 39.3521ZM66.9867 30.3378C66.921 29.909 66.7709 29.4974 66.5452 29.1266C66.3194 28.7559 66.0225 28.4333 65.6714 28.1775L68.6114 23.9737C69.1725 24.121 69.7689 24.0484 70.2781 23.7708C70.7872 23.4931 71.1706 23.0315 71.3493 22.4807L75.8955 22.5113C76.0703 23.2714 76.5151 23.9426 77.1476 24.4007L75.1442 28.4528C74.4283 28.2711 73.6698 28.3683 73.0231 28.7246C72.3774 29.0803 71.8921 29.6686 71.6665 30.3693L66.9867 30.3378ZM39.9133 31.5529L35.665 31.4126C35.556 32.0686 35.2516 32.6767 34.7913 33.1576C34.331 33.6385 33.7361 33.9698 33.0843 34.1085L33.0009 36.8763C33.5753 37.042 34.0926 37.3629 34.4957 37.8036C34.8988 38.2442 35.1721 38.7873 35.2854 39.3731L40.1444 39.2644C40.3213 38.478 40.7828 37.7843 41.4404 37.3164C42.0991 36.8479 42.9075 36.6376 43.7115 36.7256C44.5156 36.8135 45.2591 37.1936 45.8004 37.7933C46.3407 38.3921 46.6404 39.1698 46.6413 39.9746C46.6416 40.5717 46.478 41.1574 46.1682 41.6682C45.8584 42.1791 45.4142 42.5954 44.8839 42.8721C44.3533 43.1494 43.757 43.2772 43.1591 43.2416C42.5612 43.2061 41.9844 43.0086 41.4905 42.6705L36.1658 48.3445C36.692 48.9544 36.9704 49.7387 36.946 50.543C36.9216 51.3474 36.5962 52.1135 36.034 52.6904C35.614 53.121 35.082 53.4264 34.4978 53.5723C33.9136 53.7182 33.3002 53.6988 32.7264 53.5164C32.1526 53.334 31.641 52.9957 31.249 52.5395C30.8571 52.0833 30.6002 51.5272 30.5072 50.9335C30.385 50.138 30.5659 49.3257 31.0142 48.6567C31.464 47.9875 32.1476 47.5096 32.9315 47.3164C33.7155 47.1231 34.5434 47.2284 35.2538 47.6116L40.6602 41.8516C40.362 41.429 40.1692 40.9415 40.0978 40.4296L35.2924 40.5374C35.1996 41.0601 34.9787 41.5518 34.6494 41.9688C34.3201 42.3857 33.8927 42.715 33.4051 42.9273C32.9171 43.1405 32.384 43.2306 31.8529 43.1897C31.3218 43.1487 30.8089 42.9779 30.3596 42.6924L26.2861 47.3241C26.7755 47.9728 27.0391 48.7636 27.0383 49.5746C27.0388 50.1697 26.8973 50.7564 26.6253 51.2861C26.3533 51.8157 25.9587 52.2731 25.4742 52.6203C25.4874 52.6457 25.498 52.6729 25.5059 52.7001L26.5954 56.2016C27.4145 56.0283 28.268 56.131 29.0223 56.4936C29.776 56.8561 30.3874 57.4585 30.7603 58.2058L30.7937 58.1988L34.4173 57.5465C34.4298 57.1713 34.5362 56.8051 34.7268 56.4814C34.9174 56.1577 35.1862 55.8867 35.5086 55.6932C35.8312 55.4988 36.1973 55.3878 36.5738 55.37C36.9503 55.3523 37.3252 55.4284 37.6648 55.5915L41.0855 51.8996C40.8273 51.5955 40.6548 51.2284 40.5854 50.8359C40.516 50.4434 40.5523 50.0396 40.6905 49.6657C40.8288 49.2917 41.064 48.9611 41.3722 48.7076C41.6804 48.4541 42.0505 48.2868 42.4447 48.2227C42.9728 48.135 43.515 48.2367 43.9754 48.5094L50.6392 41.7631C50.2899 41.2318 50.1045 40.6099 50.1058 39.9746C50.1058 39.5564 50.184 39.1566 50.3272 38.7893L45.0632 33.2835C44.6476 33.6411 44.1458 33.8843 43.6073 33.9893C43.0688 34.0944 42.5121 34.0575 41.9922 33.8823C41.4727 33.7077 41.0078 33.4011 40.6432 32.9926C40.2787 32.5841 40.0271 32.0879 39.9133 31.5529ZM17.1164 8.67068L13.8952 11.7041C13.8715 11.7266 13.8459 11.7472 13.8188 11.7655C14.03 12.1835 14.105 12.657 14.0331 13.1197C13.9613 13.5823 13.7462 14.011 13.4181 14.3456L16.3844 19.0282C17.0296 18.817 17.7282 18.836 18.3608 19.0819C18.9934 19.3279 19.5207 19.7855 19.8525 20.3765C20.1833 20.9674 20.2967 21.6551 20.1731 22.3206C20.0496 22.986 19.6969 23.5875 19.176 24.021L21.1776 27.7699C21.9034 27.5997 22.6658 27.6832 23.3373 28.0066L25.6324 24.2578C25.2693 23.954 24.9777 23.5741 24.7785 23.1451C24.5793 22.7161 24.4773 22.2485 24.4799 21.7757C24.4824 21.3029 24.5893 20.8365 24.7931 20.4096C24.9969 19.9828 25.2924 19.606 25.6587 19.3061L23.883 15.4196C23.322 15.5499 22.7342 15.5 22.2033 15.277C21.6725 15.0541 21.2259 14.6695 20.9271 14.1782C20.6292 13.6871 20.4953 13.1142 20.5448 12.5422C20.5942 11.9703 20.8244 11.4287 21.2022 10.9957L19.3429 8.69699C19.0222 8.92318 18.64 9.04416 18.2472 9.04329C17.8395 9.04329 17.4432 8.91266 17.1164 8.67068ZM17.2974 24.7022C17.5856 24.7022 17.8729 24.6602 18.1488 24.5769L20.1047 28.2398C19.7284 28.4947 19.4103 28.826 19.1711 29.212C18.9318 29.598 18.7769 30.03 18.7164 30.4798C18.6253 31.1579 18.7532 31.8474 19.0815 32.4481C19.4098 33.0487 19.9215 33.5293 20.5423 33.8201C21.1627 34.1124 21.8601 34.2009 22.5341 34.0729C23.2081 33.9448 23.824 33.6067 24.2933 33.1073L29.227 38.1186C29.2709 38.1633 29.3219 38.201 29.3781 38.2299C29.0415 38.7497 28.863 39.3557 28.8641 39.9746C28.8641 40.6961 29.1014 41.3615 29.5038 41.899L25.4479 46.5105C25.0332 46.2163 24.5632 46.009 24.066 45.9011C23.5689 45.7932 23.0549 45.7869 22.5553 45.8827L21.8093 42.8563C21.8033 42.8313 21.7957 42.8067 21.7865 42.7827C22.251 42.4615 22.6288 42.0308 22.8862 41.5288C23.1435 41.0268 23.2726 40.4691 23.2618 39.9053C23.2507 39.3413 23.0996 38.7889 22.8221 38.2974C22.5445 37.806 22.1491 37.3909 21.6714 37.0893C20.9498 36.6327 20.0837 36.4605 19.2418 36.6062C18.4 36.7519 17.6426 37.2051 17.1173 37.8775C16.7699 38.3224 16.5383 38.8462 16.4433 39.4021L11.4165 39.4564C11.2823 38.8929 10.9363 38.4023 10.45 38.0861L10.4517 38.0704L10.4526 38.0633L11.1142 33.5509C11.6702 33.6243 12.2354 33.5267 12.7343 33.2712C13.2333 33.0157 13.6422 32.6145 13.9066 32.121C14.1701 31.6276 14.2757 31.0655 14.2091 30.5104C14.1425 29.9553 13.9069 29.4339 13.5341 29.0165C13.5425 29.005 13.5505 28.993 13.5578 28.9806L16.2878 24.5234C16.6024 24.6391 16.9424 24.7022 17.2974 24.7022ZM15.294 23.9115C14.8378 23.4848 14.5315 22.9228 14.4206 22.3088L8.77961 22.4517C8.67708 22.9418 8.46103 23.4012 8.14873 23.7931C8.18388 23.8308 8.21463 23.8738 8.23923 23.9211L10.5062 28.2713C10.8163 28.1551 11.1449 28.0957 11.4762 28.096C11.8593 28.096 12.238 28.1749 12.5886 28.3283L15.294 23.9115ZM7.25952 24.5672C6.57667 24.9683 5.77084 25.1076 4.99257 24.9591L3.9865 28.9315C3.96199 29.0305 3.91167 29.1212 3.84064 29.1945C4.26799 29.5573 4.54441 30.066 4.61591 30.6213C4.6874 31.1766 4.54882 31.7385 4.22725 32.1973L8.40442 37.8678C8.69717 37.7568 9.00983 37.7075 9.32263 37.7232L9.98162 33.2292C9.98549 33.2013 9.99137 33.1738 9.9992 33.1467C9.60915 32.8996 9.28791 32.5582 9.06521 32.1542C8.84251 31.7503 8.72554 31.2968 8.72514 30.8357C8.72435 30.1131 9.01097 29.4198 9.52208 28.9078C9.51907 28.9023 9.51614 28.8968 9.5133 28.8912L7.25952 24.5672ZM19.7682 48.1525L17.2965 48.0219V47.9746C17.2976 47.16 16.9882 46.3755 16.431 45.7802L18.0302 42.9422L18.0355 42.9335C18.0414 42.9225 18.0469 42.9114 18.0522 42.9002C18.4473 43.1379 18.8862 43.294 19.343 43.3592C19.7997 43.4244 20.2649 43.3974 20.711 43.2798L21.4491 46.2781C20.6906 46.693 20.0974 47.3545 19.7682 48.1525ZM10.9411 41.4308C11.1397 41.1967 11.2926 40.9223 11.3822 40.6207L16.4468 40.5655C16.5514 41.1581 16.8106 41.7122 17.199 42.1716C17.121 42.2229 17.0565 42.292 17.0109 42.3733L15.4856 45.0797C15.0413 44.8629 14.5531 44.7508 14.0586 44.7518C13.6896 44.7518 13.3355 44.8132 13.0051 44.9254L10.9411 41.4308Z" fill="var(--fill-0, #38BFC4)"/>
</g>
<defs>
<clipPath id="clip0_0_11">
<rect width="86.1091" height="64" fill="white"/>
</clipPath>
</defs>
</svg>
