<svg preserveAspectRatio="none" width="100%" height="100%" overflow="visible" style="display: block;" viewBox="0 0 1163.54 121.106" fill="none" xmlns="http://www.w3.org/2000/svg">
<g id="Group 2">
<path id="Vector" fill-rule="evenodd" clip-rule="evenodd" d="M5.14463 14.6436C5.68615 13.177 6.43074 12.0263 7.3784 11.1801C7.5025 11.1237 7.63788 11.1012 7.77326 11.0786C7.90864 11.0673 8.23581 11.056 8.76605 11.056C9.05937 11.056 9.30757 11.0786 9.5332 11.1125C9.75884 11.1576 9.98447 11.2366 10.2214 11.3494C10.4583 11.4735 10.7403 11.6314 11.0562 11.8458L7.02867 15.0498L7.97633 15.8056V26.4781C6.9497 25.9817 6.09229 25.1807 5.5282 24.1879C4.73848 22.8228 4.34362 20.9839 4.34362 18.6937C4.33234 17.4528 4.6031 16.099 5.14463 14.6436ZM4.77233 10.5484C5.00925 10.5484 5.31385 10.5935 5.68615 10.6725C6.05844 10.7514 6.39689 10.8304 6.71278 10.9094C4.50157 11.8909 2.78675 13.5042 1.57961 15.7718C0.530412 17.7686 -0.011109 19.9911 0.000172727 22.2588C0.000172727 25.1581 1.00424 27.6401 3.02367 29.7047C5.04309 31.7692 7.5025 32.8071 10.3906 32.8071C13.1772 32.8071 15.5463 31.7354 17.4642 29.6031C19.3821 27.4709 20.3523 24.9551 20.3523 22.0557C20.0929 22.6649 19.7883 23.1726 19.4611 23.5787C19.0437 24.0751 18.5698 24.5377 18.0622 24.9438C17.6673 25.2822 17.3063 25.5417 16.9904 25.7109C16.6745 25.8802 16.2684 26.072 15.7607 26.2863V12.0488C16.3925 11.7894 16.9002 11.5186 17.2837 11.2366C17.6673 10.9658 18.0847 10.5597 18.536 10.0294C19.698 8.7433 20.3411 7.29925 20.4764 5.71981C19.6303 6.27261 18.8744 6.67875 18.1975 6.94951C17.5206 7.20899 16.7648 7.3895 15.9299 7.46847C15.7945 7.46847 15.614 7.47975 15.3771 7.50232C14.452 7.50232 13.0757 7.1413 11.248 6.41928C9.42039 5.69725 7.97633 5.33623 6.91585 5.33623C4.82874 5.33623 3.15905 6.31774 1.8955 8.25819C0.767328 9.99557 0.191962 12.0601 0.191962 14.4631C0.349905 13.7298 0.733483 13.0303 1.34269 12.3647C1.79396 11.8683 2.31292 11.4396 2.88829 11.1012C3.45237 10.7402 4.08415 10.5484 4.77233 10.5484ZM24.0189 32.6041L27.4598 28.7683L25.7224 26.9519V16.6743L26.7152 16.0087L29.4792 18.1071V31.6677C29.4792 32.4348 29.4341 33.0892 29.3439 33.6307C29.2649 34.1384 29.0505 34.6235 28.7346 35.0296L27.7644 36.2368C27.3244 36.7783 26.7829 37.207 26.1286 37.5229C27.4485 37.3875 28.5316 37.0942 29.3664 36.6316C30.2125 36.1691 31.0812 35.4358 31.9725 34.443C32.6268 33.6984 33.1232 32.9651 33.4504 32.2318C33.7888 31.4759 34.0032 30.6749 34.1047 29.8626V14.6662L32.9202 14.7452L29.2085 12.2519L26.5234 14.4631L25.6547 13.9893V6.47568L24.865 4.77215L21.3451 8.21306V27.6965L20.2734 28.9601L24.0189 32.6041ZM35.797 28.2944L42.1599 32.322L48.2068 25.9591L44.9239 28.2944L40.8963 25.4063V22.7213L48.094 17.3399L43.5137 11.1689L36.2031 16.2682V27.4145L35.797 28.2944ZM56.9502 8.41613V15.8056C56.4199 15.862 55.9912 15.9523 55.6641 16.0877C55.3369 16.2231 54.9871 16.4487 54.6149 16.7646C53.5544 17.5881 53.0354 18.6373 53.0354 19.9234C53.0241 20.3296 53.0805 20.7244 53.1934 21.108C53.5657 20.7921 53.9267 20.5778 54.2764 20.4762C54.6374 20.3747 55.0774 20.3183 55.6076 20.3183C55.8671 20.3183 56.0815 20.3521 56.2394 20.3973C56.3974 20.4537 56.6343 20.5552 56.9502 20.7132V27.9786L62.4105 33.4727L67.4309 28.3734L73.4779 33.4727L82.2888 24.9325V10.3115L76.8285 6.12595L72.8009 9.75865L67.3068 6.12595L62.4105 10.2325V7.82948C62.4105 7.03977 61.8464 6.14851 60.707 5.14445C60.3685 4.90753 60.0414 4.65933 59.7367 4.41114C59.4321 4.16294 59.2516 3.80193 59.2065 3.33938C59.1614 2.96708 59.1388 2.59479 59.1275 2.21121C59.1275 1.31996 59.4321 0.597929 60.0414 0.0789717C59.8157 0.033845 59.5901 0.0112817 59.3644 0C58.1799 0 57.1307 0.496394 56.2281 1.4779C55.3143 2.47069 54.863 3.56501 54.863 4.78343C54.863 4.96394 54.8856 5.22342 54.942 5.5393C55.1677 6.82542 55.8333 7.78436 56.9502 8.41613ZM83.3493 28.4975L88.2456 31.9384L91.7993 28.5765L96.0299 31.5436L99.6627 27.6288H98.3991L96.7858 25.9591V14.3841L95.9171 14.5421L91.8106 11.1012L84.0262 16.4713V27.8093L83.3493 28.4975ZM106.928 11.8683C106.432 11.6314 105.958 11.3268 105.529 10.9771L99.0873 15.5236V23.1951L99.6852 23.669H103.521L98.5458 32.322C99.3129 31.6677 99.8996 31.2277 100.328 31.0133C100.926 30.72 101.592 30.5733 102.269 30.5733C103.115 30.5733 103.792 30.6749 104.322 30.8667C104.852 31.0585 105.394 31.4082 105.947 31.9159L112.264 26.9406V19.1563L111.79 18.6825H107.56V18.2876L111.317 11.6878C110.922 11.9247 110.606 12.0601 110.369 12.1052C109.985 12.1504 109.602 12.1729 109.218 12.1616H108.383C107.876 12.1729 107.379 12.0714 106.928 11.8683ZM116.946 32.0512L120.421 28.1816L118.684 26.3653V16.0877L119.631 15.4108L122.44 17.543V31.0585C122.452 31.7128 122.407 32.3671 122.305 33.0215C122.215 33.5292 122 34.003 121.651 34.4204C121.436 34.6799 121.154 35.0635 120.782 35.5711C120.308 36.1239 119.733 36.5752 119.078 36.9137C120.286 36.8121 121.369 36.5188 122.305 36.0337C123.241 35.5486 124.121 34.8265 124.934 33.8789C125.543 33.1681 126.017 32.4235 126.355 31.6451C126.694 30.8667 126.919 30.0657 127.032 29.2534V14.0683L125.881 14.1924L122.125 11.6991L119.439 13.8765L118.571 13.4026V5.92288L117.815 4.1855L114.261 7.62641V27.155L113.189 28.3734L116.946 32.0512ZM135.956 8.69817L132.402 5.81006L129.514 8.96893L132.515 11.6991L135.956 8.69817ZM130.383 17.622V28.3734L129.627 29.5242H130.969L134.049 32.1302L137.287 29.1631L141.439 32.5251L145.071 28.4975L143.921 27.0422V16.9676L144.868 16.4938L146.967 18.784V28.6555L150.645 31.8595L154.198 27.8319H152.54L151.592 26.2863V15.5349L152.066 14.5421L151.118 14.7452L147.486 11.857L143.932 15.5349L139.78 12.2519L136.339 16.0877H137.682L138.833 17.4302V27.3017L136.543 28.0914L135.076 26.9406V15.8733L135.55 15.1964L131.443 12.1504L128.081 15.7041L129.232 16.0651L130.383 17.622ZM201.446 28.0237L200.307 26.5571V16.4825L201.254 16.0087L203.353 18.2989V28.2155L207.031 31.3743L210.584 27.3468H208.926L207.978 25.8012V15.0498L208.452 14.1021L207.504 14.26L203.872 11.3719L200.318 15.0498L196.166 11.7668L192.725 15.6026H194.068L195.219 16.9451V26.8617L193.797 28.757L198.186 31.6451L201.446 28.0237ZM154.966 28.1027C155.496 28.1027 155.97 28.1703 156.41 28.3057C156.85 28.4411 157.267 28.6667 157.696 28.9939C158.113 29.3211 158.429 29.637 158.621 29.9416C158.813 30.2462 158.982 30.6636 159.117 31.1826L157.064 33.8338L154.887 36.7557C155.439 36.4398 155.913 36.248 156.308 36.1803C156.703 36.1127 157.278 36.0788 158.045 36.0788C158.937 36.1578 159.704 36.3721 160.336 36.7106C160.967 37.049 161.543 37.568 162.073 38.2562C163.337 37.7823 164.803 36.7219 166.484 35.0973C168.165 33.4615 169 32.1189 169 31.0697C169 30.8892 168.808 30.3139 168.425 29.3775C168.041 28.4185 167.849 27.4032 167.849 26.3653V14.0683L162.355 10.6273L155.439 15.5236V27.2227L154.966 28.1027ZM168.605 14.5872H170.895V28.3057L170.342 29.3775H171.685L174.573 31.5887L178.285 27.3581H176.66L175.588 26.2073V14.858L177.924 11.9699H175.588V4.42242L170.884 8.81099V11.8119L168.605 14.5872ZM178.601 28.1027L183.497 31.5774L192.037 25.6094V13.9893L191.168 14.1924L187.051 10.7176L179.266 16.0877V27.437L178.601 28.1027ZM218.718 8.4951V12.1729C218.03 12.1729 217.455 12.2406 216.981 12.3873C216.507 12.5339 216.056 12.816 215.616 13.2334C215.176 13.6508 214.928 14.1472 214.849 14.7C214.77 15.2528 214.725 15.9749 214.725 16.8774C214.725 17.2497 214.713 17.4979 214.68 17.6333C215.255 16.7082 216.067 16.3246 217.094 16.4825C217.782 16.5841 218.324 16.8774 218.718 17.3512V23.4772C217.511 24.1089 216.451 24.9438 215.56 25.9704C214.555 27.155 213.879 28.3734 213.54 29.6482C213.991 29.2985 214.465 28.9826 214.962 28.7232C215.356 28.5201 215.909 28.3283 216.62 28.1139C216.879 28.035 217.184 27.9447 217.534 27.8545C217.872 27.7642 218.267 27.7191 218.718 27.7191V39.531L223.897 35.3004L225.634 36.5639V29.84L227.845 30.5959L235.314 25.4176V8.02127L230.53 4.1855L225.634 8.29203V6.12595L224.686 5.33623V8.81099L223.897 9.36379V5.73109L219.869 2.63991L215.086 7.34437C215.481 7.10746 215.887 6.98336 216.304 6.98336C216.643 6.98336 216.981 7.03977 217.297 7.1413C218.008 7.41206 218.481 7.86333 218.718 8.4951ZM235.991 28.4975L240.887 31.9384L249.461 25.9704V14.3841L248.592 14.5421L244.441 11.1012L236.656 16.4713V27.8093L235.991 28.4975ZM258.678 11.6991C258.17 11.4509 257.674 11.1576 257.212 10.8304L250.804 15.3318V23.0033L251.356 23.4772H255.192L250.217 32.1302C250.77 31.6564 251.232 31.3067 251.605 31.0585C252.293 30.6072 253.082 30.3816 253.974 30.3816C254.797 30.3816 255.463 30.4831 255.993 30.6749C256.523 30.878 257.065 31.2164 257.618 31.7241L263.947 26.7489V18.9645L263.473 18.4907H259.242V18.0958L262.999 11.496C262.604 11.7329 262.288 11.8683 262.051 11.9135C261.814 11.9586 261.431 11.9699 260.901 11.9699H260.077C259.536 11.9699 259.073 11.8796 258.678 11.6991ZM264.048 14.779H266.338V28.4975L265.786 29.5693H267.128L269.971 31.7805L273.728 27.5499H272.103L271.032 26.3991V15.061L273.322 12.1729H271.032V4.62549L266.35 9.01406V12.015L264.048 14.779ZM88.7194 15.14L91.7993 17.4302V26.636L90.8065 27.7078L88.7081 25.8915L88.7194 15.14ZM165.243 31.3405C165.875 31.7918 166.191 32.3559 166.191 33.044C166.191 33.3599 166.157 33.5968 166.112 33.7548C165.954 33.9917 165.83 34.1496 165.751 34.2286C165.536 34.443 165.266 34.5783 164.961 34.6235C164.623 34.6799 164.171 34.5107 163.619 34.1271C163.066 33.7435 162.231 33.5517 161.125 33.5517C160.415 33.5517 159.772 33.6194 159.185 33.7548C158.609 33.8902 158 34.1158 157.369 34.4317L163.145 27.3129V28.2268C163.145 28.757 163.19 29.1857 163.28 29.5354C163.37 29.8739 163.573 30.2123 163.889 30.5282C164.341 30.799 164.792 31.081 165.243 31.3405ZM160.144 14.6662L163.145 16.8774V25.8125L162.276 26.7601L160.144 24.6279V14.6662ZM40.8963 21.5819V15.8056L43.7844 19.4383L40.8963 21.5819ZM108.609 15.061L105.924 19.8445H103.905V14.6662C104.694 15.1626 105.552 15.4221 106.477 15.4221C107.21 15.4108 107.921 15.298 108.609 15.061ZM183.971 14.7452L187.051 17.0805V26.2863L186.069 27.3581L183.971 25.4966V14.7452ZM104.649 22.7213H107.537V27.8206C107.131 27.674 106.714 27.5611 106.296 27.4822C106.014 27.4483 105.45 27.4258 104.581 27.4258C104.074 27.4145 103.577 27.4709 103.081 27.5837C102.664 27.6852 102.156 27.8657 101.581 28.1027L104.649 22.7213ZM223.897 11.9699L224.686 11.293V33.8563L223.897 33.3825V11.9699ZM225.634 10.7063L228.048 9.16072L229.786 10.4243V25.2822C228.962 24.8084 228.522 24.5602 228.443 24.5264L227.574 24.2443C226.931 24.0864 226.277 23.9284 225.634 23.7705V10.7063ZM14.452 12.4437C14.7115 12.4437 14.9259 12.4211 15.0838 12.3647V26.7489C14.091 27.2453 12.9967 27.5047 11.8798 27.5047C11.2255 27.5047 10.5598 27.4258 9.9055 27.2678C9.25116 27.1099 8.7322 26.8955 8.35991 26.636L12.8613 22.1347V12.2519C13.0531 12.3534 13.2562 12.4211 13.4705 12.4324C13.6961 12.4437 13.8428 12.455 13.9218 12.455L14.452 12.4437ZM241.372 15.14L244.452 17.4302V26.636L243.504 27.7078L241.372 25.8915V15.14ZM62.3992 11.3832L63.8658 10.2325L66.9119 13.3124V27.5047L65.6822 28.7683L62.3992 25.6094V11.3832ZM259.31 15.14C259.648 15.0836 259.987 14.9934 260.291 14.858L257.606 19.6414H255.587V14.4631C256.365 14.9595 257.268 15.219 258.193 15.219C258.599 15.219 258.971 15.1851 259.31 15.14ZM256.343 22.5295H259.231V27.6288C258.825 27.4822 258.407 27.3694 257.99 27.2904C257.708 27.2453 257.144 27.234 256.264 27.234C255.756 27.2227 255.249 27.2791 254.763 27.3919C254.267 27.5273 253.771 27.6965 253.297 27.9109L256.343 22.5295ZM72.7897 11.3832L74.2224 10.2325L77.3023 13.3124V27.5047L76.0388 28.7683L72.8009 25.6094L72.7897 11.3832Z" fill="var(--fill-0, #1E1E1E)" fill-opacity="0.5"/>
<g id="Vector_2">
<path d="M411.161 13.1197V27.9764H405.736V13.1197H400.249V8.38971H416.632V13.1197H411.161Z" fill="#1E1E1E" fill-opacity="0.5"/>
<path d="M429.311 22.0682H420.693C420.864 23.6965 421.809 24.4099 423.189 24.4099C424.475 24.4099 425.544 24.1308 426.986 23.3709L428.908 26.5965C427.094 27.6666 425.219 28.2714 422.925 28.2714C418.508 28.2714 416.074 25.1388 416.074 20.6259C416.074 15.5548 418.926 12.9649 422.786 12.9649C426.815 12.9649 429.326 15.6168 429.326 21.0757C429.326 21.5099 429.326 21.8201 429.311 22.0682ZM422.646 16.7024C421.499 16.7024 420.864 17.4933 420.693 18.9356H424.893C424.63 17.4468 424.134 16.7024 422.646 16.7024Z" fill="#1E1E1E" fill-opacity="0.5"/>
<path d="M438.673 28.2866C434.364 28.2866 431.791 25.5416 431.791 20.5945C431.791 16.0817 434.085 12.9801 438.781 12.9801C441.556 12.9801 443.137 14.2673 444.423 16.3298L440.951 18.9662C440.254 17.679 439.773 17.0587 438.688 17.0587C437.402 17.0587 436.751 18.3459 436.751 20.6721C436.751 22.9983 437.448 24.1924 438.828 24.1924C439.773 24.1924 440.455 23.6651 441.37 22.2849L444.563 24.7817C442.858 27.294 441.277 28.2866 438.673 28.2866Z" fill="#1E1E1E" fill-opacity="0.5"/>
<path d="M455.831 27.9766V19.6332C455.831 17.7257 455.195 17.2295 454.157 17.2295C453.087 17.2295 452.452 17.7257 452.452 19.5867V27.9766H447.414V9.58399L452.452 7.56794V14.2674C453.382 13.5696 454.405 12.9803 456.141 12.9803C459.365 12.9803 460.899 15.1359 460.899 18.9974V27.9766H455.831Z" fill="#1E1E1E" fill-opacity="0.5"/>
<path d="M472.942 28.2868C467.13 28.2868 464.015 23.9755 464.015 18.191C464.015 11.8947 467.703 8.09525 472.958 8.09525C477.763 8.09525 479.669 10.1733 481.018 13.8643L476.104 15.7717C475.407 13.9573 474.74 12.8097 472.942 12.8097C470.679 12.8097 469.703 15.0739 469.703 18.1755C469.703 21.1686 470.648 23.5413 473.004 23.5413C474.709 23.5413 475.438 22.6108 476.492 20.7654L481.08 23.2001C479.778 25.79 477.592 28.2868 472.942 28.2868Z" fill="#1E1E1E" fill-opacity="0.5"/>
<path d="M493.464 18.8269C492.828 18.1291 492.1 17.6018 491.123 17.6018C489.899 17.6018 489.139 18.1911 489.139 19.9745V27.9767H484.102V13.2906H489.139V14.3606C490.007 13.5232 490.984 12.9959 492.27 12.9959C493.34 12.9959 494.053 13.244 494.642 13.6162L493.464 18.8269Z" fill="#1E1E1E" fill-opacity="0.5"/>
<path d="M505.43 27.9766V26.9996C504.531 27.6975 503.477 28.2868 501.772 28.2868C498.548 28.2868 497.013 26.1312 497.013 22.2697V13.2905H502.082V21.6338C502.082 23.5413 502.717 24.0376 503.756 24.0376C504.794 24.0376 505.43 23.5413 505.43 21.6803V13.2905H510.498V27.9766H505.43Z" fill="#1E1E1E" fill-opacity="0.5"/>
<path d="M522.541 27.9764V19.6331C522.541 17.7256 521.906 17.2293 520.867 17.2293C519.798 17.2293 519.162 17.7256 519.162 19.5865V27.9764H514.125V13.2902H519.162V14.2673C520.092 13.5694 521.115 12.9801 522.851 12.9801C526.075 12.9801 527.61 15.1357 527.61 18.9972V27.9764H522.541Z" fill="#1E1E1E" fill-opacity="0.5"/>
<path d="M537.421 28.2866C533.112 28.2866 530.539 25.5416 530.539 20.5945C530.539 16.0817 532.833 12.9801 537.529 12.9801C540.304 12.9801 541.885 14.2673 543.171 16.3298L539.699 18.9662C539.002 17.679 538.521 17.0587 537.436 17.0587C536.15 17.0587 535.499 18.3459 535.499 20.6721C535.499 22.9983 536.196 24.1924 537.576 24.1924C538.521 24.1924 539.203 23.6651 540.118 22.2849L543.311 24.7817C541.606 27.294 540.025 28.2866 537.421 28.2866Z" fill="#1E1E1E" fill-opacity="0.5"/>
<path d="M554.579 27.9766V19.6332C554.579 17.7257 553.943 17.2295 552.905 17.2295C551.835 17.2295 551.2 17.7257 551.2 19.5867V27.9766H546.163V9.58399L551.2 7.56794V14.2674C552.13 13.5696 553.153 12.9803 554.889 12.9803C558.113 12.9803 559.647 15.1359 559.647 18.9974V27.9766H554.579Z" fill="#1E1E1E" fill-opacity="0.5"/>
<path d="M321.728 0V11.1968H332.919V33.575H344.094V11.1968H355.285V0H321.728Z" fill="#1E1E1E" fill-opacity="0.5"/>
<path d="M366.46 22.3783V11.1969L355.285 11.1968L355.285 33.5751H388.826V22.3783H366.46Z" fill="#1E1E1E" fill-opacity="0.5"/>
<path d="M388.826 0H366.46L366.46 11.1969L388.826 11.1968V0Z" fill="#1E1E1E" fill-opacity="0.5"/>
</g>
<g id="Vector_3">
<path d="M768.851 26.9149H775.354C775.606 27.7349 776.464 28.5548 778.072 28.5548C780.25 28.5548 781 27.2026 781 25.2031V23.7789H780.855C779.781 25.0304 778.354 25.9511 776.248 25.9511C772.102 25.9511 768.497 22.887 768.497 16.8955C768.497 11.4076 771.461 7.12792 775.931 7.12792C778.505 7.12792 780.077 8.16366 781.115 9.80359H781.223V7.70333H787.655V24.3112C787.655 27.3752 786.58 29.7632 784.972 31.1945C783.292 32.6906 780.899 33.2948 778.18 33.2948C773.069 33.2948 769.5 31.1874 768.851 26.9149ZM781.288 16.5719C781.288 14.1839 780.149 12.2563 778.18 12.2563C776.284 12.2563 775.073 13.9681 775.073 16.5719C775.073 19.1397 776.291 20.9882 778.18 20.9882C780.142 20.9954 781.288 19.1037 781.288 16.5719ZM761.316 10.976H761.424C762.816 8.30033 764.64 7.30774 766.962 7.30774C767.495 7.30774 767.856 7.37966 768.072 7.48755V13.3711H767.928C763.962 12.6591 761.641 14.5507 761.641 18.8591V26.879H754.885V7.70333H761.316V10.976ZM607.647 0H620.871C623.373 0 625.298 0.604183 626.66 1.71185C628.196 2.95618 629.018 4.81189 629.018 7.02003C629.018 9.58781 627.98 11.1918 625.838 12.1916V12.2994C628.629 13.2273 630.237 15.7231 630.237 18.7513C630.237 21.6355 629.126 23.8868 627.309 25.239C625.774 26.3467 623.776 26.879 621.13 26.879H607.647V0ZM620.229 20.9234C621.837 20.9234 623.012 19.9596 623.012 18.1758C623.012 16.3201 621.729 15.4282 620.193 15.4282H614.973V20.9162H620.229V20.9234ZM619.544 10.5157C620.972 10.5157 622.01 9.73166 622.01 8.16366C622.01 6.63163 620.936 5.88359 619.508 5.88359H614.973V10.5157H619.544Z" fill="#1E1E1E" fill-opacity="0.5"/>
<path d="M631.448 0H638.377V26.879H631.448V0ZM639.703 17.3199C639.703 11.2637 643.633 7.16388 649.711 7.16388C655.789 7.16388 659.646 11.2637 659.646 17.3199C659.646 23.4193 655.789 27.4759 649.711 27.4759C643.633 27.4831 639.703 23.4193 639.703 17.3199ZM652.782 17.3199C652.782 13.9681 651.708 11.8679 649.639 11.8679C647.57 11.8679 646.567 13.9681 646.567 17.3199C646.567 20.7077 647.57 22.8079 649.639 22.8079C651.708 22.8151 652.782 20.7077 652.782 17.3199ZM660.432 17.3199C660.432 11.2637 664.362 7.16388 670.44 7.16388C676.518 7.16388 680.376 11.2637 680.376 17.3199C680.376 23.4193 676.518 27.4759 670.44 27.4759C664.362 27.4831 660.432 23.4193 660.432 17.3199ZM673.512 17.3199C673.512 13.9681 672.437 11.8679 670.368 11.8679C668.299 11.8679 667.296 13.9681 667.296 17.3199C667.296 20.7077 668.299 22.8079 670.368 22.8079C672.437 22.8151 673.512 20.7077 673.512 17.3199ZM681.695 7.70333H688.126V10.5876H688.235C689.518 8.34348 691.27 7.12792 694.024 7.12792C696.454 7.12792 698.278 8.33629 699.208 10.4437H699.316C700.888 7.91192 702.929 7.12792 705.286 7.12792C709.757 7.12792 711.682 10.4078 711.682 14.8241V26.8718H704.926V16.0396C704.926 14.076 704.32 12.7957 702.604 12.7957C700.924 12.7957 700.066 14.3637 700.066 16.4352V26.879H693.303V16.0396C693.303 14.076 692.698 12.7957 690.982 12.7957C689.302 12.7957 688.444 14.3637 688.444 16.4352V26.879H681.695V7.70333ZM719.93 24.3831H719.858V26.879H713.427V0H720.182V9.6957H720.291C721.574 8.01981 723.29 7.12792 725.756 7.12792C730.579 7.12792 733.37 11.4795 733.37 17.248C733.37 23.7717 730.334 27.5119 725.33 27.5119C723.254 27.5191 721.113 26.5193 719.93 24.3831ZM726.506 17.1833C726.506 14.0832 725.366 12.0837 723.326 12.0837C721.257 12.0837 719.93 14.0832 719.93 17.1833C719.93 20.2473 721.25 22.2828 723.326 22.2828C725.395 22.2757 726.506 20.2833 726.506 17.1833ZM734.228 17.2552C734.228 11.2637 738.193 7.09915 743.947 7.09915C746.802 7.09915 749.023 7.99104 750.703 9.595C752.916 11.7312 753.918 15.083 753.846 19.039H740.947C741.236 21.4269 742.375 22.6425 744.416 22.6425C745.598 22.6425 746.629 22.1102 747.062 20.8227H753.565C752.426 25.2031 749.03 27.4184 744.206 27.4184C738.229 27.4112 734.228 23.3833 734.228 17.2552ZM740.947 15.2556H747.09C746.982 12.9396 745.699 11.724 744.091 11.724C742.231 11.724 741.193 13.0475 740.947 15.2556Z" fill="#1E1E1E" fill-opacity="0.5"/>
</g>
<g id="Vector_4">
<path d="M862.666 20.9021V2.82178C862.666 1.88119 862.874 1.17574 863.317 0.705446C863.734 0.235149 864.307 0 864.984 0C865.687 0 866.26 0.235149 866.677 0.705446C867.12 1.17574 867.328 1.88119 867.328 2.82178V20.9021C867.328 21.8427 867.12 22.5743 866.677 23.0446C866.234 23.5149 865.687 23.75 864.984 23.75C864.307 23.75 863.76 23.5149 863.343 23.0446C862.9 22.5481 862.666 21.8427 862.666 20.9021Z" fill="#1E1E1E" fill-opacity="0.5"/>
<path d="M988.71 23.7239C982.198 23.7239 976.884 18.3938 976.884 11.8619C976.884 5.33003 982.198 0 988.71 0C995.222 0 1000.54 5.33003 1000.54 11.8619C1000.54 18.42 995.248 23.7239 988.71 23.7239ZM988.71 4.80748C984.829 4.80748 981.677 7.96892 981.677 11.8619C981.677 15.7549 984.829 18.9164 988.71 18.9164C992.591 18.9164 995.743 15.7549 995.743 11.8619C995.743 7.99505 992.591 4.80748 988.71 4.80748Z" fill="#1E1E1E" fill-opacity="0.5"/>
<path d="M935.651 23.7239C929.139 23.7239 923.825 18.3938 923.825 11.8619C923.825 5.33003 929.139 0 935.651 0C942.163 0 947.477 5.33003 947.477 11.8619C947.477 18.42 942.163 23.7239 935.651 23.7239ZM935.651 4.80748C931.77 4.80748 928.618 7.96892 928.618 11.8619C928.618 15.7549 931.77 18.9164 935.651 18.9164C939.532 18.9164 942.684 15.7549 942.684 11.8619C942.684 7.99505 939.532 4.80748 935.651 4.80748Z" fill="#1E1E1E" fill-opacity="0.5"/>
<path d="M973.107 11.8619C973.107 9.24918 972.248 6.81931 970.815 4.85974C968.731 2.01183 965.397 0.130638 961.62 0C961.49 0 961.386 0 961.256 0H955.317C954.301 0 953.572 0.235149 953.129 0.705446C952.686 1.17574 952.452 1.90732 952.452 2.95242V20.7976C952.452 21.8427 952.686 22.5743 953.129 23.0446C953.572 23.5149 954.327 23.75 955.317 23.75H961.256C961.386 23.75 961.49 23.75 961.62 23.75C965.397 23.6455 968.705 21.7643 970.815 18.8903C972.248 16.9046 973.107 14.4747 973.107 11.8619ZM962.115 18.8641C961.542 18.8903 960.917 18.9164 960.266 18.9164H957.166V4.80748H960.266C960.917 4.80748 961.542 4.80748 962.115 4.85974C964.173 5.09488 965.944 6.2445 967.064 7.86441C967.846 8.9879 968.315 10.3727 968.315 11.8619C968.315 13.3512 967.846 14.7098 967.064 15.8333C965.944 17.5055 964.173 18.629 962.115 18.8641Z" fill="#1E1E1E" fill-opacity="0.5"/>
<path d="M917.131 0.104448C916.272 -0.156828 915.334 0.182831 914.839 0.940532L907.702 11.8357L900.565 0.940532C900.07 0.182831 899.132 -0.156828 898.273 0.104448C897.413 0.365724 896.814 1.20181 896.814 2.11627V21.4768C896.814 22.6264 897.726 23.5932 898.872 23.5932C899.992 23.5932 900.93 22.6526 900.93 21.4768V9.01396L905.983 16.7477C905.983 16.7477 905.983 16.7477 905.983 16.7739C905.983 16.7739 905.983 16.8 906.009 16.8C906.035 16.8522 906.061 16.9045 906.113 16.9306C906.139 16.9568 906.139 16.9568 906.165 16.9829C906.191 17.009 906.217 17.0613 906.243 17.0874C906.269 17.1135 906.295 17.1396 906.321 17.1658C906.347 17.1919 906.374 17.1919 906.374 17.218C906.426 17.2442 906.452 17.2703 906.504 17.3225L906.53 17.3487C906.582 17.3748 906.634 17.4009 906.66 17.4271C906.686 17.4271 906.686 17.4532 906.686 17.4532C906.712 17.4793 906.764 17.4793 906.79 17.5054C906.999 17.6099 907.207 17.6622 907.441 17.6883C907.494 17.6883 907.52 17.6883 907.572 17.6883C907.598 17.6883 907.624 17.6883 907.65 17.6883C907.676 17.6883 907.702 17.6883 907.728 17.6883C907.78 17.6883 907.806 17.6883 907.858 17.6883C908.067 17.6622 908.301 17.6099 908.509 17.5054C908.535 17.4793 908.588 17.4793 908.614 17.4532L908.64 17.4271C908.692 17.4009 908.744 17.3748 908.77 17.3487C908.796 17.3487 908.796 17.3225 908.796 17.3225C908.848 17.2964 908.874 17.2703 908.926 17.218C908.952 17.1919 908.978 17.1919 908.978 17.1658C909.004 17.1396 909.03 17.1135 909.056 17.0874C909.082 17.0613 909.109 17.0351 909.135 16.9829C909.161 16.9568 909.161 16.9568 909.187 16.9306C909.213 16.8784 909.265 16.8522 909.291 16.8L909.317 16.7739C909.317 16.7739 909.317 16.7739 909.317 16.7477L914.37 9.01396V21.4768C914.37 22.6264 915.282 23.5932 916.428 23.5932C917.548 23.5932 918.486 22.6526 918.486 21.4768V2.11627C918.59 1.20181 917.991 0.365724 917.131 0.104448Z" fill="#1E1E1E" fill-opacity="0.5"/>
<path d="M889.833 23.0184H874.491C873.684 23.0184 872.798 22.522 872.46 21.7382C872.121 20.9543 872.069 19.8831 872.772 19.0209L885.301 4.41556H874.934C873.814 4.41556 872.876 3.42272 872.876 2.22085C872.876 1.01898 873.788 0.261276 874.934 0.261276H888.896C889.703 0.261276 890.537 0.391914 891.266 1.20187C891.943 1.93344 891.891 3.52723 891.162 4.46782L879.05 18.629H889.833C890.979 18.629 891.787 19.6218 891.787 20.8237C891.787 22.0256 890.979 23.0184 889.833 23.0184Z" fill="#1E1E1E" fill-opacity="0.5"/>
<path d="M847.402 23.7239C843.99 23.7239 840.916 22.3652 838.702 19.9092C836.775 17.7668 835.655 14.9189 835.655 12.0971C835.655 3.29208 842.948 0 847.558 0C852.091 0 855.399 2.22085 855.555 2.32536C856.571 3.0308 856.857 4.41557 856.154 5.46067C855.477 6.50577 854.096 6.76705 853.08 6.08773C853.028 6.0616 850.658 4.52008 847.558 4.52008C844.667 4.52008 840.682 6.42739 840.682 12.0971C840.682 15.3108 843.078 19.1254 847.454 19.1254C849.929 19.1254 851.648 18.4722 852.664 17.819V14.4747H849.277C848.053 14.4747 847.063 13.4557 847.063 12.2277C847.063 10.9736 848.053 9.98074 849.277 9.98074H854.93C856.154 9.98074 857.144 10.9997 857.144 12.2277V18.9425C857.144 19.5434 856.909 20.1444 856.467 20.5624C854.982 22.0256 851.7 23.7239 847.402 23.7239Z" fill="#1E1E1E" fill-opacity="0.5"/>
</g>
<g id="Vector_5">
<path fill-rule="evenodd" clip-rule="evenodd" d="M1118.59 8.13823C1116.76 8.13823 1115.31 8.51852 1113.86 9.35516C1113.86 5.17196 1113.86 1.29299 1114.01 0L1105.08 1.59722V2.3578L1106 2.50992C1107.22 2.7381 1107.6 3.42262 1107.83 5.01984C1108.06 8.21429 1107.98 25.0232 1107.83 27.8373C1110.19 28.3697 1112.71 28.75 1115.23 28.75C1122.25 28.75 1126.45 24.4147 1126.45 17.5694C1126.52 12.0933 1123.09 8.13823 1118.59 8.13823ZM1115.54 27.2288C1115 27.2288 1114.32 27.2288 1113.93 27.0767C1113.78 25.2513 1113.7 17.4934 1113.78 10.6481C1114.54 10.42 1115.08 10.2679 1115.76 10.2679C1118.66 10.2679 1120.27 13.6905 1120.27 17.8737C1120.27 23.1978 1118.28 27.2288 1115.54 27.2288Z" fill="#1E1E1E" fill-opacity="0.5"/>
<path fill-rule="evenodd" clip-rule="evenodd" d="M1071.81 0.532276H1048.54V1.74921L1049.83 1.90132C1051.59 2.1295 1052.2 3.19431 1052.5 5.70423C1052.89 10.4198 1052.73 19.0144 1052.5 23.1216C1052.27 25.6315 1051.59 26.7724 1049.83 26.9245L1048.54 27.1526V28.2175H1063.49V27.1526L1061.89 26.9245C1060.13 26.7724 1059.52 25.6315 1059.22 23.1216C1059.07 21.3722 1058.99 18.6341 1058.99 15.2115L1062.19 15.3636C1064.18 15.3636 1065.09 16.9608 1065.48 19.1665H1066.7V9.73532H1065.48C1065.09 11.941 1064.18 13.5382 1062.19 13.5382L1058.99 13.6903C1058.99 9.20291 1059.14 5.01971 1059.22 2.50979H1063.87C1067.46 2.50979 1069.29 4.71548 1070.59 8.6705L1071.89 8.29021L1071.81 0.532276Z" fill="#1E1E1E" fill-opacity="0.5"/>
<path fill-rule="evenodd" clip-rule="evenodd" d="M1079.29 7.9101C1085.93 7.9101 1089.21 12.3975 1089.21 18.3301C1089.21 23.9584 1085.55 28.75 1078.91 28.75C1072.27 28.75 1068.99 24.2626 1068.99 18.3301C1068.99 12.6257 1072.73 7.9101 1079.29 7.9101ZM1078.91 9.20309C1076.01 9.20309 1075.24 13.1581 1075.24 18.254C1075.24 23.2739 1076.54 27.3049 1079.21 27.3049C1082.26 27.3049 1083.03 23.3499 1083.03 18.254C1083.03 13.3102 1081.73 9.20309 1078.91 9.20309Z" fill="#1E1E1E" fill-opacity="0.5"/>
<path fill-rule="evenodd" clip-rule="evenodd" d="M1128.2 18.4062C1128.2 13.0061 1131.64 7.8341 1138.35 7.8341C1143.92 7.8341 1146.52 11.9412 1146.52 17.3414H1134.23C1134.08 22.2091 1136.45 25.7838 1141.25 25.7838C1143.39 25.7838 1144.46 25.2514 1145.76 24.3387L1146.29 25.0233C1144.99 26.8487 1142.09 28.6741 1138.35 28.6741C1132.48 28.7501 1128.2 24.4908 1128.2 18.4062ZM1134.31 15.9723L1140.49 15.8202C1140.49 13.1582 1140.11 9.20315 1137.82 9.20315C1135.61 9.20315 1134.46 12.93 1134.31 15.9723Z" fill="#1E1E1E" fill-opacity="0.5"/>
<path fill-rule="evenodd" clip-rule="evenodd" d="M1162.31 8.97492C1160.71 8.29039 1158.65 7.9101 1156.21 7.9101C1151.33 7.9101 1148.27 10.8003 1148.27 14.2229C1148.27 17.6456 1150.49 19.0907 1153.69 20.1555C1156.97 21.3724 1157.89 22.2851 1157.89 23.8063C1157.89 25.4035 1156.67 26.8486 1154.61 26.8486C1152.09 26.8486 1150.26 25.4035 1148.81 21.4485L1147.89 21.6766L1148.04 27.4571C1149.65 28.1416 1152.55 28.674 1155.06 28.674C1160.25 28.674 1163.54 26.012 1163.54 21.9809C1163.54 19.2428 1162.09 17.6456 1158.65 16.3526C1154.99 14.9075 1153.62 13.9948 1153.62 12.2454C1153.62 10.4961 1154.84 9.35521 1156.36 9.35521C1158.73 9.35521 1160.33 10.8003 1161.55 14.3751L1162.47 14.1469L1162.31 8.97492Z" fill="#1E1E1E" fill-opacity="0.5"/>
<path fill-rule="evenodd" clip-rule="evenodd" d="M1106.38 8.4426C1104.17 7.14961 1100.2 7.75807 1098.06 12.5497L1098.21 7.91019L1089.36 9.65953V10.4201L1090.28 10.5722C1091.5 10.7243 1092.03 11.3328 1092.11 13.0821C1092.34 16.2766 1092.26 21.7528 1092.11 24.5669C1091.96 26.1642 1091.42 26.9247 1090.28 27.0769L1089.36 27.229V28.2938H1101.65V27.229L1100.05 27.0769C1098.75 26.9247 1098.29 26.1642 1098.21 24.5669C1097.98 22.057 1097.98 17.0372 1098.06 13.9188C1098.75 13.0061 1101.65 12.1694 1104.24 13.9188L1106.38 8.4426Z" fill="#1E1E1E" fill-opacity="0.5"/>
</g>
<g id="Vector_6">
<path d="M428.508 114.446H435.011C435.264 115.266 436.122 116.086 437.729 116.086C439.907 116.086 440.657 114.733 440.657 112.734V111.31H440.513C439.438 112.561 438.011 113.482 435.905 113.482C431.759 113.482 428.154 110.418 428.154 104.426C428.154 98.9383 431.118 94.6587 435.588 94.6587C438.162 94.6587 439.734 95.6944 440.772 97.3344H440.88V95.2341H447.312V111.842C447.312 114.906 446.237 117.294 444.629 118.725C442.95 120.221 440.556 120.826 437.838 120.826C432.726 120.826 429.157 118.718 428.508 114.446ZM440.945 104.103C440.945 101.715 439.806 99.787 437.838 99.787C435.941 99.787 434.73 101.499 434.73 104.103C434.73 106.67 435.949 108.519 437.838 108.519C439.799 108.526 440.945 106.634 440.945 104.103ZM420.973 98.5068H421.081C422.473 95.8311 424.297 94.8385 426.619 94.8385C427.152 94.8385 427.513 94.9104 427.729 95.0183V100.902H427.585C423.619 100.19 421.298 102.082 421.298 106.39V114.41H414.542V95.2341H420.973V98.5068ZM267.304 87.5308H280.528C283.03 87.5308 284.955 88.1349 286.317 89.2426C287.853 90.4869 288.675 92.3426 288.675 94.5508C288.675 97.1186 287.637 98.7225 285.496 99.7223V99.8302C288.286 100.758 289.894 103.254 289.894 106.282C289.894 109.166 288.783 111.418 286.966 112.77C285.431 113.877 283.433 114.41 280.787 114.41H267.304V87.5308ZM279.886 108.454C281.494 108.454 282.669 107.49 282.669 105.707C282.669 103.851 281.386 102.959 279.85 102.959H274.63V108.447H279.886V108.454ZM279.201 98.0464C280.629 98.0464 281.667 97.2624 281.667 95.6944C281.667 94.1624 280.593 93.4144 279.165 93.4144H274.63V98.0464H279.201Z" fill="#1E1E1E" fill-opacity="0.5"/>
<path d="M291.105 87.5308H298.034V114.41H291.105V87.5308ZM299.36 104.851C299.36 98.7945 303.29 94.6946 309.368 94.6946C315.446 94.6946 319.304 98.7945 319.304 104.851C319.304 110.95 315.446 115.007 309.368 115.007C303.29 115.014 299.36 110.95 299.36 104.851ZM312.44 104.851C312.44 101.499 311.365 99.3986 309.296 99.3986C307.227 99.3986 306.224 101.499 306.224 104.851C306.224 108.238 307.227 110.339 309.296 110.339C311.365 110.346 312.44 108.238 312.44 104.851ZM320.089 104.851C320.089 98.7945 324.019 94.6946 330.097 94.6946C336.175 94.6946 340.033 98.7945 340.033 104.851C340.033 110.95 336.175 115.007 330.097 115.007C324.019 115.014 320.089 110.95 320.089 104.851ZM333.169 104.851C333.169 101.499 332.094 99.3986 330.025 99.3986C327.956 99.3986 326.954 101.499 326.954 104.851C326.954 108.238 327.956 110.339 330.025 110.339C332.094 110.346 333.169 108.238 333.169 104.851ZM341.352 95.2341H347.783V98.1183H347.892C349.175 95.8742 350.927 94.6587 353.681 94.6587C356.111 94.6587 357.935 95.867 358.865 97.9745H358.974C360.545 95.4427 362.586 94.6587 364.943 94.6587C369.414 94.6587 371.339 97.9385 371.339 102.355V114.403H364.583V103.57C364.583 101.607 363.977 100.326 362.261 100.326C360.581 100.326 359.723 101.894 359.723 103.966V114.41H352.96V103.57C352.96 101.607 352.355 100.326 350.639 100.326C348.959 100.326 348.101 101.894 348.101 103.966V114.41H341.352V95.2341ZM379.587 111.914H379.515V114.41H373.084V87.5308H379.84V97.2265H379.948C381.231 95.5506 382.947 94.6587 385.413 94.6587C390.236 94.6587 393.027 99.0102 393.027 104.779C393.027 111.302 389.991 115.043 384.988 115.043C382.911 115.05 380.77 114.05 379.587 111.914ZM386.163 104.714C386.163 101.614 385.024 99.6144 382.983 99.6144C380.914 99.6144 379.587 101.614 379.587 104.714C379.587 107.778 380.907 109.814 382.983 109.814C385.052 109.806 386.163 107.814 386.163 104.714ZM393.885 104.786C393.885 98.7945 397.85 94.6299 403.604 94.6299C406.459 94.6299 408.68 95.5218 410.36 97.1258C412.573 99.262 413.576 102.614 413.503 106.57H400.605C400.893 108.958 402.032 110.173 404.073 110.173C405.255 110.173 406.286 109.641 406.719 108.353H413.222C412.083 112.734 408.687 114.949 403.864 114.949C397.886 114.942 393.885 110.914 393.885 104.786ZM400.605 102.786H406.748C406.639 100.47 405.356 99.2548 403.748 99.2548C401.888 99.2548 400.85 100.578 400.605 102.786Z" fill="#1E1E1E" fill-opacity="0.5"/>
</g>
<g id="Vector_7">
<path fill-rule="evenodd" clip-rule="evenodd" d="M565.365 95.669C563.533 95.669 562.083 96.0493 560.633 96.8859C560.633 92.7027 560.633 88.8238 560.786 87.5308L551.858 89.128V89.8886L552.773 90.0407C553.994 90.2689 554.376 90.9534 554.605 92.5506C554.834 95.745 554.758 112.554 554.605 115.368C556.971 115.9 559.489 116.281 562.007 116.281C569.028 116.281 573.225 111.945 573.225 105.1C573.301 99.624 569.867 95.669 565.365 95.669ZM562.312 114.76C561.778 114.76 561.091 114.76 560.71 114.607C560.557 112.782 560.481 105.024 560.557 98.1789C561.32 97.9507 561.854 97.7986 562.541 97.7986C565.441 97.7986 567.044 101.221 567.044 105.404C567.044 110.729 565.059 114.76 562.312 114.76Z" fill="#1E1E1E" fill-opacity="0.5"/>
<path fill-rule="evenodd" clip-rule="evenodd" d="M518.586 88.063H495.312V89.28L496.609 89.4321C498.364 89.6603 498.975 90.7251 499.28 93.235C499.661 97.9506 499.509 106.545 499.28 110.652C499.051 113.162 498.364 114.303 496.609 114.455L495.312 114.683V115.748H510.269V114.683L508.666 114.455C506.911 114.303 506.3 113.162 505.995 110.652C505.843 108.903 505.766 106.165 505.766 102.742L508.971 102.894C510.955 102.894 511.871 104.492 512.253 106.697H513.474V97.2661H512.253C511.871 99.4718 510.955 101.069 508.971 101.069L505.766 101.221C505.766 96.7337 505.919 92.5505 505.995 90.0406H510.65C514.237 90.0406 516.068 92.2462 517.365 96.2013L518.663 95.821L518.586 88.063Z" fill="#1E1E1E" fill-opacity="0.5"/>
<path fill-rule="evenodd" clip-rule="evenodd" d="M526.065 95.4409C532.704 95.4409 535.985 99.9283 535.985 105.861C535.985 111.489 532.322 116.281 525.683 116.281C519.044 116.281 515.763 111.793 515.763 105.861C515.763 100.156 519.502 95.4409 526.065 95.4409ZM525.683 96.7339C522.783 96.7339 522.02 100.689 522.02 105.785C522.02 110.805 523.318 114.836 525.988 114.836C529.041 114.836 529.804 110.881 529.804 105.785C529.804 100.841 528.507 96.7339 525.683 96.7339Z" fill="#1E1E1E" fill-opacity="0.5"/>
<path fill-rule="evenodd" clip-rule="evenodd" d="M574.98 105.937C574.98 100.537 578.414 95.3649 585.129 95.3649C590.7 95.3649 593.294 99.472 593.294 104.872H581.008C580.856 109.74 583.221 113.315 588.029 113.315C590.166 113.315 591.234 112.782 592.531 111.869L593.065 112.554C591.768 114.379 588.868 116.205 585.129 116.205C579.253 116.281 574.98 112.022 574.98 105.937ZM581.085 103.503L587.266 103.351C587.266 100.689 586.884 96.7339 584.595 96.7339C582.382 96.7339 581.237 100.461 581.085 103.503Z" fill="#1E1E1E" fill-opacity="0.5"/>
<path fill-rule="evenodd" clip-rule="evenodd" d="M609.091 96.5057C607.488 95.8212 605.428 95.4409 602.986 95.4409C598.102 95.4409 595.05 98.3311 595.05 101.754C595.05 105.176 597.263 106.621 600.468 107.686C603.749 108.903 604.665 109.816 604.665 111.337C604.665 112.934 603.444 114.379 601.383 114.379C598.865 114.379 597.034 112.934 595.584 108.979L594.668 109.207L594.821 114.988C596.423 115.672 599.323 116.205 601.841 116.205C607.03 116.205 610.312 113.543 610.312 109.512C610.312 106.774 608.862 105.176 605.428 103.883C601.765 102.438 600.391 101.526 600.391 99.7762C600.391 98.0268 601.612 96.886 603.138 96.886C605.504 96.886 607.107 98.3311 608.328 101.906L609.243 101.678L609.091 96.5057Z" fill="#1E1E1E" fill-opacity="0.5"/>
<path fill-rule="evenodd" clip-rule="evenodd" d="M553.155 95.9734C550.942 94.6804 546.974 95.2888 544.837 100.081L544.99 95.441L536.138 97.1903V97.9509L537.054 98.103C538.274 98.2551 538.809 98.8636 538.885 100.613C539.114 103.807 539.038 109.284 538.885 112.098C538.732 113.695 538.198 114.455 537.054 114.608L536.138 114.76V115.825H548.424V114.76L546.821 114.608C545.524 114.455 545.066 113.695 544.99 112.098C544.761 109.588 544.761 104.568 544.837 101.45C545.524 100.537 548.424 99.7002 551.018 101.45L553.155 95.9734Z" fill="#1E1E1E" fill-opacity="0.5"/>
</g>
<g id="Vector_8">
<path d="M747.744 100.65V115.507H742.32V100.65H736.833V95.9205H753.216V100.65H747.744Z" fill="#1E1E1E" fill-opacity="0.5"/>
<path d="M765.894 109.599H757.277C757.447 111.227 758.393 111.941 759.772 111.941C761.059 111.941 762.128 111.662 763.57 110.902L765.492 114.127C763.678 115.197 761.803 115.802 759.509 115.802C755.091 115.802 752.658 112.67 752.658 108.157C752.658 103.086 755.51 100.496 759.369 100.496C763.399 100.496 765.91 103.148 765.91 108.606C765.91 109.041 765.91 109.351 765.894 109.599ZM759.23 104.233C758.083 104.233 757.447 105.024 757.277 106.466H761.477C761.214 104.978 760.718 104.233 759.23 104.233Z" fill="#1E1E1E" fill-opacity="0.5"/>
<path d="M775.256 115.817C770.947 115.817 768.374 113.072 768.374 108.125C768.374 103.612 770.668 100.511 775.365 100.511C778.139 100.511 779.72 101.798 781.007 103.861L777.535 106.497C776.837 105.21 776.357 104.589 775.272 104.589C773.985 104.589 773.334 105.877 773.334 108.203C773.334 110.529 774.032 111.723 775.411 111.723C776.357 111.723 777.039 111.196 777.953 109.816L781.146 112.312C779.441 114.825 777.86 115.817 775.256 115.817Z" fill="#1E1E1E" fill-opacity="0.5"/>
<path d="M792.414 115.507V107.164C792.414 105.256 791.779 104.76 790.74 104.76C789.671 104.76 789.035 105.256 789.035 107.117V115.507H783.998V97.1148L789.035 95.0987V101.798C789.965 101.1 790.988 100.511 792.724 100.511C795.948 100.511 797.483 102.667 797.483 106.528V115.507H792.414Z" fill="#1E1E1E" fill-opacity="0.5"/>
<path d="M809.526 115.818C803.714 115.818 800.598 111.506 800.598 105.722C800.598 99.4255 804.287 95.626 809.541 95.626C814.346 95.626 816.253 97.7041 817.601 101.395L812.688 103.303C811.99 101.488 811.324 100.34 809.526 100.34C807.263 100.34 806.287 102.605 806.287 105.706C806.287 108.699 807.232 111.072 809.588 111.072C811.293 111.072 812.021 110.142 813.075 108.296L817.663 110.731C816.361 113.321 814.176 115.818 809.526 115.818Z" fill="#1E1E1E" fill-opacity="0.5"/>
<path d="M830.047 106.358C829.412 105.66 828.684 105.133 827.707 105.133C826.483 105.133 825.723 105.722 825.723 107.505V115.507H820.686V100.821H825.723V101.891C826.591 101.054 827.568 100.527 828.854 100.527C829.923 100.527 830.636 100.775 831.225 101.147L830.047 106.358Z" fill="#1E1E1E" fill-opacity="0.5"/>
<path d="M842.013 115.507V114.53C841.114 115.228 840.06 115.818 838.355 115.818C835.131 115.818 833.597 113.662 833.597 109.8V100.821H838.665V109.165C838.665 111.072 839.301 111.568 840.339 111.568C841.378 111.568 842.013 111.072 842.013 109.211V100.821H847.082V115.507H842.013Z" fill="#1E1E1E" fill-opacity="0.5"/>
<path d="M859.125 115.507V107.164C859.125 105.256 858.489 104.76 857.451 104.76C856.381 104.76 855.746 105.256 855.746 107.117V115.507H850.708V100.821H855.746V101.798C856.676 101.1 857.699 100.511 859.435 100.511C862.659 100.511 864.193 102.666 864.193 106.528V115.507H859.125Z" fill="#1E1E1E" fill-opacity="0.5"/>
<path d="M874.004 115.817C869.696 115.817 867.123 113.072 867.123 108.125C867.123 103.612 869.417 100.511 874.113 100.511C876.887 100.511 878.468 101.798 879.755 103.861L876.283 106.497C875.585 105.21 875.105 104.589 874.02 104.589C872.733 104.589 872.082 105.877 872.082 108.203C872.082 110.529 872.78 111.723 874.159 111.723C875.105 111.723 875.787 111.196 876.701 109.816L879.894 112.312C878.189 114.825 876.608 115.817 874.004 115.817Z" fill="#1E1E1E" fill-opacity="0.5"/>
<path d="M891.163 115.507V107.164C891.163 105.256 890.527 104.76 889.489 104.76C888.419 104.76 887.784 105.256 887.784 107.117V115.507H882.746V97.1148L887.784 95.0987V101.798C888.714 101.1 889.737 100.511 891.472 100.511C894.696 100.511 896.231 102.667 896.231 106.528V115.507H891.163Z" fill="#1E1E1E" fill-opacity="0.5"/>
<path d="M658.312 87.5308V98.7276H669.502V121.106H680.677V98.7276H691.868V87.5308H658.312Z" fill="#1E1E1E" fill-opacity="0.5"/>
<path d="M703.043 109.909V98.7277L691.868 98.7276L691.868 121.106H725.409V109.909H703.043Z" fill="#1E1E1E" fill-opacity="0.5"/>
<path d="M725.409 87.5308H703.043L703.043 98.7277L725.409 98.7276V87.5308Z" fill="#1E1E1E" fill-opacity="0.5"/>
</g>
</g>
</svg>
