<svg width="86" height="64" viewBox="0 0 86 64" fill="none" xmlns="http://www.w3.org/2000/svg">
<path fill-rule="evenodd" clip-rule="evenodd" d="M41.6167 3.75759C41.6175 4.26561 41.5145 4.76846 41.314 5.23544C41.1136 5.70242 40.8198 6.12373 40.4507 6.47364L42.3152 9.31331C42.7237 9.16553 43.1548 9.09017 43.5893 9.09063C44.0471 9.09025 44.501 9.17406 44.9284 9.33786L47.1409 5.91868C46.7785 5.65084 46.4893 5.29665 46.2996 4.88849C46.1098 4.48033 46.0257 4.03123 46.0548 3.58225C46.0843 3.13313 46.2264 2.6986 46.4681 2.31855C46.7097 1.9385 47.0432 1.62511 47.4378 1.40712C48.0339 1.07725 48.7326 0.983743 49.3947 1.14528C50.0567 1.30681 50.6334 1.71149 51.0096 2.27858C51.2583 2.65468 51.4076 3.08603 51.4454 3.53403L56.7719 4.57732C56.8993 4.18195 57.1333 3.82917 57.4482 3.5576C57.7631 3.28604 58.1468 3.10615 58.5573 3.03762C58.9679 2.96909 59.3894 3.01458 59.7757 3.16909C60.1621 3.3236 60.4984 3.58118 60.7478 3.91364C61.0817 4.35901 61.2373 4.9131 61.1872 5.46542L65.6192 6.33337C65.8249 6.18294 66.065 6.08599 66.3177 6.05127C66.5705 6.01654 66.8279 6.04514 67.0667 6.13448C67.3056 6.22381 67.5185 6.37108 67.686 6.56299C67.8536 6.7549 67.9707 6.98542 68.0267 7.23375C68.1104 7.60906 68.0489 8.00206 67.8545 8.33404C67.6601 8.66602 67.3472 8.91246 66.9784 9.024C66.7341 9.09858 66.475 9.11123 66.2245 9.06082L65.0375 10.9195C65.3512 11.2526 65.5752 11.6594 65.6886 12.1013L71.0282 12.1381C71.1251 11.8105 71.2954 11.5092 71.5261 11.2569C71.7569 11.0046 72.0421 10.808 72.3603 10.6819C72.8401 10.4916 73.3706 10.4702 73.8644 10.6211C74.3581 10.772 74.7855 11.0863 75.0762 11.5121C75.3654 11.9381 75.4998 12.4501 75.4569 12.9629C75.4141 13.4757 75.1966 13.9584 74.8407 14.3307L77.9617 18.7222C78.6854 18.4925 79.4668 18.5233 80.1701 18.8093C80.8733 19.0952 81.4537 19.6182 81.8103 20.2871C82.1658 20.9561 82.2735 21.7288 82.1144 22.4691C81.9553 23.2095 81.5396 23.8702 80.9404 24.3349C80.543 24.6439 80.0789 24.8564 79.5849 24.9553C79.0909 25.0542 78.5806 25.0369 78.0944 24.9048L76.0884 28.9622C76.6695 29.4067 77.0599 30.0547 77.1806 30.7752L81.3059 30.8033C81.4018 30.3274 81.6491 29.8952 82.011 29.5709C82.3729 29.2465 82.8301 29.0475 83.3146 29.0034C83.7989 28.9582 84.285 29.0696 84.7011 29.3211C85.1172 29.5725 85.4412 29.9508 85.6255 30.4C85.8087 30.849 85.8416 31.345 85.7194 31.8142C85.5972 32.2834 85.3263 32.7007 84.9471 33.0038C84.5677 33.308 84.1003 33.4824 83.6139 33.5012C83.1275 33.52 82.648 33.3822 82.2461 33.1082L74.9374 38.9725C75.0788 39.2552 75.1591 39.5644 75.1729 39.8801C75.1868 40.1958 75.1339 40.5109 75.0177 40.8048C74.9015 41.0988 74.7246 41.365 74.4986 41.5863C74.2725 41.8076 74.0023 41.9789 73.7055 42.0892C73.258 42.256 72.7691 42.2777 72.3085 42.1513C71.8479 42.0249 71.4389 41.7569 71.1398 41.3852C70.9419 41.1387 70.7982 40.8535 70.718 40.5479L65.968 40.5155C65.8334 41.2354 65.4338 41.879 64.8477 42.3198C64.2609 42.7613 63.5302 42.9685 62.7985 42.9009C62.0667 42.8332 61.3866 42.4957 60.8911 41.9542C60.4175 41.4369 60.1454 40.7673 60.1242 40.067C60.1029 39.3667 60.3338 38.682 60.7751 38.137C61.1964 37.6154 61.7835 37.253 62.4393 37.1095L62.4955 33.9428C61.9311 33.7423 61.4317 33.3927 61.0506 32.9314C60.6695 32.4701 60.4209 31.9143 60.3313 31.3232C60.2425 30.7322 60.3166 30.1282 60.5457 29.576C60.7748 29.0238 61.1502 28.5443 61.6318 28.1889L59.8103 24.8004C59.4364 24.9447 59.039 25.0184 58.6382 25.0179C58.2911 25.0179 57.9467 24.9635 57.6172 24.8548L55.431 28.4537C55.9121 28.851 56.2724 29.3745 56.4714 29.9651C56.6705 30.5557 56.7003 31.19 56.5575 31.7966C56.4143 32.4035 56.104 32.9585 55.6615 33.3987C55.219 33.839 54.662 34.1471 54.0533 34.2882L54.0094 36.7825C54.4859 36.8895 54.9325 37.101 55.3169 37.4017C55.7013 37.7024 56.0137 38.0848 56.2315 38.521C56.449 38.9573 56.566 39.4366 56.574 39.9238C56.5819 40.4111 56.4805 40.8939 56.2772 41.337C56.074 41.7801 55.774 42.1723 55.3992 42.4847C55.0245 42.7972 54.5844 43.0221 54.1113 43.143C53.6381 43.2651 53.1436 43.2806 52.6637 43.1884C52.1838 43.0962 51.7304 42.8987 51.3365 42.61L44.6867 49.3431C44.913 49.7436 45.0108 50.2037 44.9672 50.6614C44.9235 51.119 44.7404 51.5524 44.4425 51.9031C44.1443 52.2547 43.7457 52.5071 43.2999 52.6265C42.8541 52.7458 42.3824 52.7266 41.9479 52.5712L38.4456 56.3524C38.6628 56.6696 38.795 57.0369 38.8298 57.4194C38.8647 57.8019 38.8008 58.187 38.6445 58.538C38.4881 58.889 38.2443 59.1942 37.9364 59.4247C37.6285 59.6552 37.2665 59.8033 36.8851 59.8549C36.4262 59.918 35.9589 59.8395 35.546 59.63C35.1331 59.4205 34.7943 59.0899 34.5751 58.6827L31.0068 59.3245C31.086 59.8596 31.0487 60.4054 30.8973 60.9247C30.7459 61.4441 30.4841 61.9247 30.1297 62.334C29.7752 62.7432 29.3365 63.0714 28.8435 63.2961C28.3504 63.5208 27.8146 63.6368 27.2725 63.6362C26.7774 63.6367 26.2871 63.54 25.8294 63.3515C25.3718 63.1629 24.9559 62.8863 24.6055 62.5374C24.255 62.1884 23.9769 61.774 23.787 61.3178C23.5971 60.8616 23.4991 60.3726 23.4986 59.8786C23.4981 59.2164 23.6734 58.5658 24.0066 57.9931C24.3398 57.4204 24.8191 56.946 25.3957 56.6181L24.3175 53.1524C23.9427 53.2724 23.5514 53.3334 23.1577 53.333C22.6397 53.3336 22.1272 53.2277 21.652 53.0219C21.1769 52.816 20.7493 52.5147 20.3961 52.1368C20.0428 51.7588 19.7714 51.3122 19.5987 50.8249C19.4261 50.3376 19.3559 49.8201 19.3926 49.3045L16.9587 49.1757C16.7753 49.6315 16.4898 50.0395 16.1242 50.3685C15.7586 50.6974 15.3224 50.9387 14.8491 51.0738C14.1349 51.2779 13.3722 51.2315 12.6883 50.9422C12.0043 50.6529 11.4405 50.1383 11.091 49.4843C10.7429 48.8304 10.6315 48.0768 10.7754 47.3505C10.9192 46.6241 11.3097 45.9695 11.8809 45.497L9.87319 42.098C9.40733 42.2647 8.89962 42.275 8.42738 42.1271C7.95515 41.9793 7.5443 41.6815 7.2574 41.2791C6.97141 40.8769 6.82571 40.392 6.84269 39.8991C6.85968 39.4062 7.03841 38.9325 7.35142 38.5508L3.22609 32.9495C2.73546 33.1785 2.17887 33.2248 1.65701 33.0799C1.13516 32.935 0.682512 32.6086 0.380979 32.1596C0.181439 31.862 0.0559186 31.5212 0.0148356 31.1654C-0.0262474 30.8097 0.0182923 30.4494 0.144758 30.1143C0.271223 29.7792 0.475967 29.479 0.741993 29.2387C1.00802 28.9984 1.32766 28.8249 1.67437 28.7325C2.02091 28.6392 2.38467 28.6293 2.7358 28.7036C2.73864 28.685 2.74245 28.6665 2.74722 28.6483L3.7902 24.5313C3.3305 24.246 2.94989 23.8502 2.68324 23.3801C2.41659 22.9101 2.27243 22.3807 2.26396 21.8407C2.25617 21.3004 2.38481 20.7669 2.63803 20.2893C2.89125 19.8118 3.26089 19.4055 3.71287 19.1079C4.39533 18.6574 5.22322 18.4809 6.03062 18.6137C6.83802 18.7466 7.56528 19.1789 8.06665 19.8242C8.39879 20.2512 8.6167 20.7544 8.70193 21.2883L14.343 21.1445C14.4799 20.5484 14.8018 20.0106 15.2629 19.6077L12.3106 14.9436C11.7589 15.0999 11.1684 15.0419 10.6578 14.7813C10.1472 14.5207 9.75449 14.0769 9.55863 13.5391C9.42987 13.183 9.39329 12.8002 9.45227 12.4263C9.51125 12.0523 9.66389 11.6993 9.89603 11.3999C10.1282 11.0997 10.4324 10.8628 10.7805 10.7108C11.1286 10.5588 11.5095 10.4967 11.888 10.5302C12.2665 10.5633 12.6305 10.6908 12.9468 10.901C12.9591 10.8868 12.9723 10.8734 12.9863 10.8607L16.327 7.71332C16.1927 7.28293 16.2173 6.81882 16.3961 6.40492C16.575 5.99102 16.8965 5.65465 17.3023 5.45666C17.7081 5.25803 18.1715 5.21 18.6096 5.32116C19.0476 5.43231 19.4317 5.69541 19.6931 6.06334C19.8661 6.30722 19.9785 6.58854 20.0213 6.88421C20.064 7.17988 20.0359 7.48146 19.9392 7.76416C19.9954 7.79748 20.0464 7.84131 20.0903 7.89567L22.0339 10.3005C22.6423 10.026 23.3303 9.98323 23.9681 10.1803C24.6059 10.3773 25.1494 10.8006 25.4958 11.3701C25.8417 11.9396 25.9653 12.6162 25.843 13.2709C25.7206 13.9255 25.3608 14.5122 24.8324 14.919L26.5775 18.738C27.3144 18.491 28.1157 18.5163 28.8356 18.8091C29.5554 19.102 30.146 19.6429 30.4998 20.3336C30.8526 21.0245 30.9435 21.8192 30.7557 22.5717C30.568 23.3241 30.1142 23.9835 29.4779 24.4287C29.0562 24.7248 28.5699 24.9162 28.0592 24.9873C27.5485 25.0583 27.0282 25.0069 26.5414 24.8373L24.177 28.6983C24.7433 29.2953 25.0585 30.0864 25.0574 30.9085C25.0574 31.3162 24.9801 31.7195 24.8289 32.0973L29.9568 37.305C29.9876 37.3363 30.0147 37.371 30.0377 37.4084C30.5283 37.0362 31.1156 36.812 31.73 36.7623L31.8073 34.1471C30.982 34.0239 30.2336 33.5947 29.7117 32.9451C29.1905 32.2961 28.9347 31.4745 28.9956 30.6451C29.0566 29.8157 29.4298 29.04 30.0403 28.4739C30.6517 27.9068 31.4549 27.5906 32.2897 27.5884C33.0576 27.5884 33.801 27.8532 34.3941 28.3389C34.9866 28.824 35.3917 29.4997 35.5398 30.2501L39.7838 30.3886C39.8593 29.9398 40.0318 29.5128 40.2893 29.1372C40.5468 28.7616 40.8831 28.4464 41.2749 28.2135C41.6667 27.98 42.1045 27.8339 42.5583 27.7854C43.012 27.7369 43.4709 27.7871 43.9034 27.9325C44.3359 28.0779 44.7316 28.315 45.0634 28.6276C45.3952 28.9402 45.6552 29.3209 45.8255 29.7433C45.9948 30.1656 46.0699 30.6197 46.0456 31.0739C46.0213 31.5281 45.8983 31.9715 45.6849 32.3735C45.7155 32.3947 45.7441 32.4188 45.7701 32.4454L50.8594 37.7696C51.3777 37.2031 52.0789 36.836 52.8407 36.7325L52.882 34.3513C52.4129 34.2947 51.9611 34.1401 51.5558 33.8976C51.1506 33.6552 50.801 33.3303 50.5299 32.9442C50.2593 32.5583 50.0736 32.1196 49.9849 31.657C49.8962 31.1944 49.9064 30.7183 50.015 30.2599C50.1236 29.8016 50.3281 29.3713 50.6151 28.9973C50.902 28.6233 51.2649 28.3141 51.68 28.0899C52.0955 27.8649 52.5538 27.7298 53.025 27.6932C53.4963 27.6566 53.97 27.7195 54.4153 27.8777L56.5926 24.2928C56.2118 23.9845 55.9064 23.5936 55.6998 23.1498C55.4931 22.7061 55.3906 22.2211 55.4 21.7319C55.4094 21.2426 55.5304 20.7619 55.754 20.3264C55.9776 19.8909 56.2978 19.5119 56.6902 19.2184L54.787 15.6818C54.1822 15.909 53.5212 15.9415 52.897 15.7747L50.4455 19.4551C51.0116 19.9904 51.3644 20.712 51.4389 21.4866C51.5133 22.2612 51.3044 23.0366 50.8506 23.6695C50.5491 24.0893 50.1511 24.4309 49.69 24.6655C49.2289 24.9001 48.7181 25.021 48.2005 25.0179C47.6829 25.0153 47.1734 24.8893 46.7146 24.6503C46.2557 24.4113 45.8608 24.0663 45.5628 23.6441C45.2658 23.222 45.0747 22.7349 45.0057 22.2238L41.6773 22.1142C41.6013 23.0575 41.1719 23.9376 40.4746 24.579C39.7773 25.2205 38.8633 25.5763 37.9149 25.5755C37.4197 25.576 36.9294 25.4793 36.4717 25.2908C36.014 25.1022 35.5981 24.8256 35.2476 24.4767C34.897 24.1278 34.6188 23.7134 34.4288 23.2572C34.2388 22.801 34.1407 22.3119 34.1401 21.8179C34.1397 21.209 34.2879 20.6092 34.5721 20.0704C34.8562 19.5317 35.2677 19.0701 35.7709 18.7257L34.025 16.0658C33.175 16.3663 32.2417 16.3292 31.4185 15.9619C30.5952 15.5947 29.9451 14.9256 29.6027 14.0932C29.3395 13.4507 29.2746 12.7445 29.4162 12.0651C29.5579 11.3856 29.8997 10.7638 30.3979 10.2795L27.8208 6.58674C27.3899 6.68343 26.94 6.65257 26.5264 6.49793C26.1128 6.34329 25.7534 6.0716 25.4923 5.71616C25.2974 5.45045 25.1634 5.14532 25.0996 4.82227C25.0358 4.49923 25.0438 4.16616 25.123 3.84654C25.2023 3.52693 25.3509 3.22856 25.5583 2.97248C25.7658 2.71641 26.027 2.50886 26.3235 2.36449C26.7202 2.17027 27.1651 2.09585 27.6035 2.15036C28.042 2.20487 28.4549 2.38594 28.7917 2.67134C29.1282 2.95715 29.3734 3.33501 29.4964 3.75671H34.0672C34.0678 3.26272 34.1659 2.77369 34.3559 2.31753C34.5459 1.86138 34.8241 1.44704 35.1747 1.09819C35.5252 0.749334 35.9412 0.472795 36.3988 0.284366C36.8565 0.095937 37.3469 -0.00069136 37.8419 -1.32282e-07C38.3371 -0.000576125 38.8275 0.0961599 39.2851 0.284685C39.7428 0.47321 40.1588 0.749831 40.5093 1.09876C40.8598 1.44768 41.138 1.86207 41.328 2.31828C41.518 2.77448 41.6161 3.26356 41.6167 3.75759ZM28.8629 6.03967C29.188 5.73984 29.4173 5.35057 29.5228 4.92099H34.2517C34.4996 5.67585 34.9803 6.33321 35.6251 6.79913C36.2699 7.26504 37.0458 7.51566 37.8419 7.51518C38.4131 7.51518 38.9772 7.38718 39.4912 7.13819L41.2907 9.88055C40.8461 10.227 40.4864 10.6699 40.239 11.1758C39.9916 11.6817 39.863 12.2371 39.8629 12.8C39.8634 13.2876 39.9603 13.7703 40.1478 14.2205C40.3353 14.6708 40.6099 15.0798 40.9559 15.4241C41.3018 15.7685 41.7124 16.0415 42.1641 16.2275C42.6157 16.4136 43.0997 16.5091 43.5884 16.5085C44.5754 16.5097 45.5224 16.1196 46.2213 15.4242C46.9201 14.7287 47.3134 13.7848 47.3148 12.8C47.3155 12.2485 47.1925 11.7037 46.9547 11.2058C46.7169 10.7079 46.3704 10.2695 45.9406 9.92263L48.2207 6.39649C48.8517 6.52149 49.5068 6.4184 50.0686 6.10566C50.6304 5.79293 51.0624 5.29095 51.2873 4.68953L56.7192 5.75211C56.8079 6.14926 57.0039 6.51485 57.285 6.8103L55.1622 10.0892C54.4753 9.7201 53.6742 9.62304 52.9188 9.81741C52.1634 10.0118 51.5092 10.4833 51.0869 11.1378C50.6659 11.7921 50.509 12.5813 50.648 13.3463C50.7869 14.1114 51.2112 14.7956 51.8355 15.2609L49.4658 18.8186C48.8107 18.5459 48.0842 18.495 47.3973 18.6736C46.7105 18.8522 46.1012 19.2505 45.6629 19.8076C45.373 20.1758 45.1674 20.6045 45.0602 21.0613L41.5868 20.9473C41.4671 20.4491 41.2469 19.9806 40.9395 19.5703C40.6321 19.16 40.2441 18.8166 39.7991 18.561C39.3542 18.3055 38.8617 18.1432 38.3517 18.0841C37.8417 18.025 37.3251 18.0703 36.8332 18.2172L35.0469 15.4959C35.7156 14.9614 36.1644 14.2005 36.308 13.3578C36.4517 12.515 36.2803 11.6489 35.8263 10.9238C35.3697 10.199 34.6631 9.66585 33.8398 9.4249C33.0164 9.18395 32.1332 9.25184 31.3565 9.61578L28.8611 6.03967H28.8629ZM55.7834 15.0698L57.7358 18.6968C58.4396 18.4938 59.1915 18.5344 59.8693 18.8118C60.5471 19.0892 61.111 19.5872 61.4692 20.2249C61.826 20.8625 61.9547 21.6023 61.8343 22.3226C61.7139 23.0429 61.3515 23.7009 60.8067 24.1885L62.6783 27.6708C63.2735 27.4976 63.9054 27.4942 64.5024 27.6611L67.4881 23.3916C67.2212 23.1273 67.0248 22.8007 66.9165 22.4414C66.8082 22.0822 66.7915 21.7016 66.868 21.3343C66.9444 20.967 67.1116 20.6246 67.3543 20.338C67.597 20.0515 67.9075 19.83 68.2578 19.6936C68.7275 19.5103 69.2451 19.4884 69.7287 19.6313L71.8963 14.6472L71.9051 14.6253C71.4508 14.3095 71.1282 13.8385 70.9983 13.3015L65.7299 13.2655C65.6282 13.818 65.3572 14.3253 64.9543 14.7176C64.5514 15.1099 64.0365 15.3677 63.4805 15.4556C62.925 15.5443 62.3556 15.4598 61.85 15.2136C61.3444 14.9674 60.9273 14.5715 60.6556 14.08C60.3846 13.5885 60.2733 13.0252 60.3368 12.4679C60.4004 11.9106 60.6358 11.3867 61.0106 10.9685C61.3854 10.5495 61.881 10.2563 62.4294 10.1293C62.9777 10.0024 63.5521 10.0477 64.0736 10.2593L65.2536 8.41293C65.0515 8.11485 64.9637 7.7554 65.0032 7.39857L60.7733 6.57096C60.5639 6.86351 60.2874 7.10185 59.9668 7.2661C59.6463 7.43035 59.2911 7.51575 58.9308 7.51518C58.7049 7.51518 58.487 7.48186 58.2805 7.42049L56.0733 10.8309C56.5364 11.3832 56.7886 12.0811 56.7877 12.8C56.7882 13.2274 56.6991 13.6502 56.5261 14.0413C56.3532 14.4323 56.1002 14.783 55.7834 15.0707V15.0698ZM73.2011 15.0295C73.4234 15.0295 73.6378 14.9979 73.8408 14.9383L76.924 19.2772C76.2785 19.7905 75.8549 20.5314 75.7405 21.3471L71.2997 21.3173C71.2126 20.9158 71.0169 20.5459 70.7339 20.2477L72.9692 15.1101C72.9814 15.0814 72.9914 15.0518 72.999 15.0216C73.0658 15.0268 73.1326 15.0295 73.2011 15.0295ZM65.9504 39.3521C65.8271 38.7867 65.539 38.2703 65.1223 37.8679C64.7057 37.4654 64.1791 37.1949 63.6088 37.0902L63.6606 34.1322C64.4134 34.1202 65.1397 33.8531 65.7202 33.3747C66.2998 32.8968 66.6988 32.2359 66.851 31.5012L71.4377 31.5318C71.5044 32.2087 71.8102 32.8408 72.2996 33.3151C72.6655 33.6695 73.1185 33.9215 73.6131 34.0455C74.1076 34.1696 74.6262 34.1615 75.1165 34.0219C75.6069 33.8824 76.0518 33.6163 76.4063 33.2506C76.7608 32.8848 77.0124 32.4323 77.1358 31.9386L81.3798 31.9676C81.4087 32.0552 81.4439 32.1412 81.4843 32.2244L74.1633 38.0984C73.8643 37.9012 73.5228 37.7773 73.1667 37.737C72.8106 37.6967 72.45 37.7411 72.1144 37.8666C71.7787 37.992 71.4777 38.195 71.2357 38.4588C70.9938 38.7226 70.8179 39.0399 70.7224 39.3845L65.9504 39.3521ZM66.8809 30.3378C66.8152 29.909 66.6651 29.4974 66.4394 29.1266C66.2136 28.7559 65.9167 28.4333 65.5656 28.1775L68.5056 23.9737C69.0667 24.121 69.6631 24.0484 70.1723 23.7708C70.6814 23.4931 71.0648 23.0315 71.2435 22.4807L75.7897 22.5113C75.9645 23.2714 76.4093 23.9426 77.0418 24.4007L75.0384 28.4528C74.3225 28.2711 73.564 28.3683 72.9173 28.7246C72.2716 29.0803 71.7863 29.6686 71.5607 30.3693L66.8809 30.3378ZM39.8075 31.5529L35.5592 31.4126C35.4502 32.0686 35.1458 32.6767 34.6855 33.1576C34.2252 33.6385 33.6303 33.9698 32.9785 34.1085L32.8951 36.8763C33.4695 37.042 33.9868 37.3629 34.3899 37.8036C34.793 38.2442 35.0663 38.7873 35.1796 39.3731L40.0386 39.2644C40.2155 38.478 40.677 37.7843 41.3346 37.3164C41.9933 36.8479 42.8017 36.6376 43.6057 36.7256C44.4098 36.8135 45.1533 37.1936 45.6946 37.7933C46.2349 38.3921 46.5346 39.1698 46.5354 39.9746C46.5358 40.5717 46.3722 41.1574 46.0624 41.6682C45.7526 42.1791 45.3084 42.5954 44.7781 42.8721C44.2475 43.1494 43.6512 43.2772 43.0533 43.2416C42.4554 43.2061 41.8786 43.0086 41.3847 42.6705L36.06 48.3445C36.5862 48.9544 36.8646 49.7387 36.8402 50.543C36.8158 51.3474 36.4904 52.1135 35.9282 52.6904C35.5082 53.121 34.9762 53.4264 34.392 53.5723C33.8078 53.7182 33.1944 53.6988 32.6206 53.5164C32.0467 53.334 31.5352 52.9957 31.1432 52.5395C30.7513 52.0833 30.4944 51.5272 30.4014 50.9335C30.2792 50.138 30.4601 49.3257 30.9084 48.6567C31.3582 47.9875 32.0418 47.5096 32.8257 47.3164C33.6096 47.1231 34.4376 47.2284 35.148 47.6116L40.5544 41.8516C40.2562 41.429 40.0634 40.9415 39.992 40.4296L35.1866 40.5374C35.0938 41.0601 34.8729 41.5518 34.5436 41.9688C34.2143 42.3857 33.7869 42.715 33.2993 42.9273C32.8113 43.1405 32.2782 43.2306 31.7471 43.1897C31.216 43.1487 30.7031 42.9779 30.2538 42.6924L26.1803 47.3241C26.6697 47.9728 26.9333 48.7636 26.9325 49.5746C26.933 50.1697 26.7915 50.7564 26.5195 51.2861C26.2475 51.8157 25.8529 52.2731 25.3684 52.6203C25.3816 52.6457 25.3922 52.6729 25.4001 52.7001L26.4896 56.2016C27.3087 56.0283 28.1622 56.131 28.9165 56.4936C29.6702 56.8561 30.2816 57.4585 30.6545 58.2058L30.6879 58.1988L34.3115 57.5465C34.324 57.1713 34.4304 56.8051 34.621 56.4814C34.8116 56.1577 35.0804 55.8867 35.4028 55.6931C35.7254 55.4988 36.0915 55.3878 36.468 55.37C36.8445 55.3523 37.2194 55.4284 37.559 55.5914L40.9797 51.8996C40.7215 51.5955 40.549 51.2284 40.4796 50.8359C40.4102 50.4434 40.4465 50.0396 40.5847 49.6657C40.7229 49.2917 40.9582 48.9611 41.2664 48.7076C41.5746 48.4541 41.9447 48.2868 42.3389 48.2227C42.867 48.135 43.4092 48.2367 43.8696 48.5094L50.5334 41.7631C50.1841 41.2318 49.9987 40.6099 50 39.9746C50 39.5564 50.0782 39.1566 50.2214 38.7893L44.9574 33.2835C44.5418 33.6411 44.04 33.8843 43.5015 33.9893C42.963 34.0944 42.4063 34.0575 41.8864 33.8823C41.3669 33.7077 40.902 33.4011 40.5374 32.9926C40.1729 32.5841 39.9213 32.0879 39.8075 31.5529ZM17.0106 8.67068L13.7894 11.7041C13.7657 11.7266 13.7401 11.7472 13.713 11.7655C13.9242 12.1835 13.9992 12.657 13.9273 13.1197C13.8555 13.5823 13.6404 14.011 13.3123 14.3456L16.2786 19.0282C16.9238 18.817 17.6224 18.836 18.255 19.0819C18.8876 19.3279 19.4149 19.7855 19.7467 20.3765C20.0775 20.9674 20.1909 21.6551 20.0673 22.3206C19.9438 22.986 19.5911 23.5875 19.0702 24.021L21.0718 27.7699C21.7976 27.5997 22.56 27.6832 23.2315 28.0066L25.5266 24.2578C25.1635 23.954 24.8719 23.5741 24.6727 23.1451C24.4735 22.7161 24.3715 22.2485 24.3741 21.7757C24.3766 21.3029 24.4835 20.8365 24.6873 20.4096C24.891 19.9828 25.1866 19.606 25.5529 19.3061L23.7772 15.4196C23.2162 15.5499 22.6284 15.5 22.0975 15.277C21.5667 15.0541 21.1201 14.6695 20.8213 14.1782C20.5234 13.6871 20.3895 13.1142 20.439 12.5422C20.4884 11.9703 20.7186 11.4287 21.0964 10.9957L19.2371 8.69699C18.9164 8.92318 18.5342 9.04416 18.1414 9.04329C17.7337 9.04329 17.3374 8.91266 17.0106 8.67068ZM17.1916 24.7022C17.4798 24.7022 17.7671 24.6602 18.043 24.5769L19.9989 28.2398C19.6226 28.4947 19.3045 28.826 19.0653 29.212C18.826 29.598 18.6711 30.03 18.6106 30.4798C18.5195 31.1579 18.6474 31.8474 18.9757 32.4481C19.304 33.0487 19.8157 33.5293 20.4365 33.8201C21.0569 34.1124 21.7543 34.2009 22.4283 34.0729C23.1023 33.9448 23.7182 33.6067 24.1875 33.1073L29.1212 38.1186C29.1651 38.1633 29.2161 38.201 29.2723 38.2299C28.9357 38.7497 28.7572 39.3557 28.7583 39.9746C28.7583 40.6961 28.9956 41.3615 29.398 41.899L25.3421 46.5105C24.9274 46.2163 24.4574 46.009 23.9602 45.9011C23.4631 45.7932 22.9491 45.7869 22.4495 45.8827L21.7035 42.8563C21.6975 42.8313 21.6899 42.8067 21.6807 42.7827C22.1452 42.4615 22.523 42.0308 22.7804 41.5288C23.0377 41.0268 23.1668 40.4691 23.156 39.9053C23.1449 39.3413 22.9938 38.7889 22.7163 38.2974C22.4387 37.806 22.0433 37.3909 21.5656 37.0893C20.844 36.6327 19.9779 36.4605 19.136 36.6062C18.2942 36.7519 17.5368 37.2051 17.0115 37.8775C16.6641 38.3224 16.4325 38.8461 16.3375 39.4021L11.3107 39.4564C11.1765 38.8929 10.8305 38.4023 10.3442 38.0861L10.3459 38.0704L10.3468 38.0633L11.0084 33.5509C11.5644 33.6243 12.1296 33.5267 12.6285 33.2712C13.1275 33.0157 13.5364 32.6145 13.8008 32.121C14.0643 31.6276 14.1699 31.0655 14.1033 30.5104C14.0367 29.9553 13.8011 29.4339 13.4283 29.0165C13.4367 29.005 13.4447 28.993 13.452 28.9806L16.182 24.5234C16.4966 24.6391 16.8366 24.7022 17.1916 24.7022ZM15.1882 23.9115C14.732 23.4848 14.4257 22.9228 14.3148 22.3088L8.67381 22.4517C8.57128 22.9418 8.35523 23.4012 8.04293 23.7931C8.07808 23.8308 8.10883 23.8738 8.13343 23.9211L10.4004 28.2713C10.7105 28.1551 11.0391 28.0957 11.3704 28.096C11.7535 28.096 12.1322 28.1749 12.4828 28.3283L15.1882 23.9115ZM7.15372 24.5672C6.47087 24.9683 5.66504 25.1076 4.88677 24.9591L3.8807 28.9315C3.85619 29.0305 3.80587 29.1212 3.73484 29.1945C4.16218 29.5573 4.43861 30.066 4.5101 30.6213C4.5816 31.1766 4.44302 31.7385 4.12145 32.1973L8.29862 37.8678C8.59137 37.7568 8.90402 37.7075 9.21683 37.7232L9.87582 33.2291C9.87969 33.2013 9.88557 33.1738 9.8934 33.1467C9.50335 32.8996 9.18211 32.5582 8.95941 32.1542C8.7367 31.7503 8.61974 31.2968 8.61933 30.8357C8.61855 30.1131 8.90517 29.4198 9.41628 28.9078C9.41327 28.9023 9.41034 28.8968 9.4075 28.8912L7.15372 24.5672ZM19.6624 48.1525L17.1907 48.0219V47.9746C17.1918 47.16 16.8824 46.3755 16.3252 45.7802L17.9244 42.9422L17.9297 42.9335C17.9356 42.9225 17.9411 42.9114 17.9464 42.9002C18.3415 43.1379 18.7804 43.294 19.2372 43.3592C19.6939 43.4244 20.1591 43.3974 20.6052 43.2798L21.3433 46.2781C20.5848 46.693 19.9916 47.3545 19.6624 48.1525ZM10.8353 41.4308C11.0339 41.1967 11.1868 40.9223 11.2764 40.6207L16.341 40.5655C16.4456 41.1581 16.7048 41.7122 17.0932 42.1716C17.0152 42.2229 16.9507 42.292 16.9051 42.3733L15.3798 45.0797C14.9355 44.8629 14.4473 44.7508 13.9528 44.7518C13.5838 44.7518 13.2297 44.8131 12.8993 44.9254L10.8353 41.4308Z" fill="#38BFC4"/>
</svg>
