<svg width="80" height="32" viewBox="0 0 80 32" fill="none" xmlns="http://www.w3.org/2000/svg">
    <path d="M0.0117188 8C0.0117188 3.58172 3.59344 0 8.01172 0H71.0117C75.43 0 79.0117 3.58172 79.0117 8V24C79.0117 28.4183 75.43 32 71.0117 32H8.01172C3.59344 32 0.0117188 28.4183 0.0117188 24V8Z" fill="black" fill-opacity="0.03"/>
    <g clip-path="url(#clip0_5817_95226)">
        <path fill-rule="evenodd" clip-rule="evenodd" d="M23.8115 16.0625C23.8115 19.1172 18.9502 23.9998 15.9087 23.9998C12.8672 23.9998 8.00586 19.1172 8.00586 16.0625C8.00586 13.0077 12.8672 8.125 15.9087 8.125C18.9502 8.125 23.8115 13.0077 23.8115 16.0625ZM19.0698 16.0625C19.0698 17.2844 17.1252 19.2374 15.9087 19.2374C14.692 19.2374 12.7475 17.2844 12.7475 16.0625C12.7475 14.8406 14.6921 12.8875 15.9087 12.8875C17.1252 12.8875 19.0698 14.8406 19.0698 16.0625Z" fill="#0065FF"/>
        <path d="M32.4172 23.9991C35.3664 23.9991 37.2147 22.1427 37.7755 19.7021H34.5356C34.1411 20.5365 33.518 21.1623 32.4172 21.1623C31.088 21.1623 30.1119 20.2028 30.1119 18.5548C30.1119 16.907 31.088 15.9473 32.4172 15.9473C33.518 15.9473 34.1411 16.5731 34.5356 17.4076H37.7755C37.2147 14.967 35.3664 13.1105 32.4172 13.1105C29.2603 13.1105 26.9551 15.5303 26.9551 18.5548C26.9551 21.5795 29.2603 23.9991 32.4172 23.9991ZM38.8814 23.7697H42.0175V8.12514H38.8814V23.7697ZM45.4495 11.9215C46.5502 11.9215 47.4225 11.0454 47.4225 9.9607C47.4225 8.87608 46.5502 8 45.4495 8C44.3904 8 43.4972 8.87608 43.4972 9.9607C43.4972 11.0454 44.3904 11.9215 45.4495 11.9215ZM43.8919 23.7697H47.028V13.34H43.8919V23.7697ZM53.7416 23.9991C56.6906 23.9991 58.5388 22.1427 59.0998 19.7021H55.8599C55.4651 20.5365 54.8423 21.1623 53.7416 21.1623C52.4122 21.1623 51.4363 20.2028 51.4363 18.5548C51.4363 16.907 52.4122 15.9473 53.7416 15.9473C54.8423 15.9473 55.4651 16.5731 55.8599 17.4076H59.0998C58.5388 14.967 56.6906 13.1105 53.7416 13.1105C50.5848 13.1105 48.2795 15.5303 48.2795 18.5548C48.2795 21.5795 50.5848 23.9991 53.7416 23.9991ZM67.2047 23.7697H71.0052L66.2702 18.0543L70.0915 13.34H66.3737L63.3417 17.0738V8.12514H60.2057V23.7697H63.3417V19.118L67.2047 23.7697Z" fill="#010101"/>
    </g>
    <defs>
        <clipPath id="clip0_5817_95226">
            <rect width="63" height="16" fill="white" transform="translate(8.01172 8)"/>
        </clipPath>
    </defs>
</svg>
