<svg width="72" height="32" viewBox="0 0 72 32" fill="none" xmlns="http://www.w3.org/2000/svg">
    <path d="M0 8C0 3.58172 3.58172 0 8 0H63.0118C67.43 0 71.0118 3.58172 71.0118 8V24C71.0118 28.4183 67.43 32 63.0118 32H8C3.58173 32 0 28.4183 0 24V8Z" fill="black" fill-opacity="0.03"/>
    <path d="M17.0141 9.58268C16.8214 9.27082 16.5702 8.99923 16.2743 8.78288C15.9754 8.57853 15.6479 8.41952 15.3025 8.311C14.9272 8.18822 14.5397 8.10643 14.1468 8.06707C13.687 8.02225 13.2252 8.00089 12.7631 8.00308H8.76414C8.67144 7.99433 8.57793 8.00427 8.48914 8.03231C8.40035 8.06035 8.3181 8.10593 8.24725 8.16634C8.17639 8.22675 8.11839 8.30076 8.07666 8.384C8.03493 8.46724 8.01034 8.558 8.00433 8.65092C8.00433 8.65092 8.00433 8.67491 8.00433 8.68691V15.1812C8.55876 16.3709 9.47947 17.3519 10.6317 17.9805V16.6769C10.6229 16.5763 10.634 16.4749 10.6645 16.3787C10.6949 16.2824 10.744 16.1931 10.8091 16.1158C10.8741 16.0385 10.9537 15.9749 11.0433 15.9284C11.133 15.882 11.2309 15.8536 11.3315 15.8451H12.5312C14.1681 15.8451 15.4172 15.5025 16.2783 14.8173C17.1394 14.1322 17.5766 13.1164 17.59 11.7701C17.5914 11.3821 17.5457 10.9954 17.454 10.6184C17.3626 10.2522 17.2141 9.90273 17.0141 9.58268ZM14.6707 12.9218C14.5312 13.1618 14.3239 13.3552 14.0748 13.4777C13.8049 13.6066 13.5133 13.6839 13.215 13.7056C12.8874 13.7464 12.5575 13.7665 12.2273 13.7656H11.0756C10.7996 13.7656 10.6277 13.5417 10.6277 13.2138V10.5344C10.6237 10.4756 10.6328 10.4167 10.6542 10.3618C10.6757 10.307 10.709 10.2575 10.7518 10.217C10.7946 10.1765 10.8458 10.146 10.9018 10.1275C10.9577 10.1091 11.0171 10.1033 11.0756 10.1105H12.2273C12.6005 10.1105 12.9524 10.1212 13.283 10.1425C13.5776 10.1567 13.8668 10.2273 14.1348 10.3505C14.3814 10.4603 14.5871 10.645 14.7227 10.8783C14.8758 11.1913 14.946 11.5383 14.9266 11.8861C14.9344 12.2466 14.846 12.6027 14.6707 12.9178V12.9218ZM10.6357 18.3724C9.6495 18.0166 8.75189 17.4519 8.00433 16.7169V19.8561C7.99595 19.9159 7.99976 19.9767 8.01551 20.035C8.03126 20.0933 8.05864 20.1478 8.09599 20.1952C8.13335 20.2427 8.17991 20.2821 8.23288 20.3111C8.28585 20.3401 8.34413 20.358 8.40423 20.3639H10.2118C10.6917 20.3639 10.6357 19.8521 10.6357 19.8521V18.3724ZM35.4775 11.4222H33.9179C33.7691 11.4125 33.6216 11.4557 33.5015 11.5443C33.3815 11.6328 33.2967 11.761 33.2621 11.9061L31.4505 16.8968C31.4505 16.8968 29.8509 12.35 29.7309 11.9981C29.6972 11.8357 29.6091 11.6897 29.4811 11.5842C29.3531 11.4788 29.1929 11.4202 29.0271 11.4182H27.5915C27.0796 11.4182 27.0796 11.8181 27.1476 11.9741C27.2156 12.13 29.1791 17.5127 29.9469 19.5721C30.0678 19.8256 30.1526 20.0949 30.1988 20.3719C30.149 20.6454 30.0458 20.9063 29.8949 21.1397C29.8365 21.2387 29.7696 21.3323 29.695 21.4197C31.1746 20.9798 32.8942 19.3762 33.7579 17.6446C34.6297 15.2452 35.7774 12.046 35.8294 11.8821C35.8854 11.6302 35.8854 11.4222 35.4775 11.4222ZM28.5272 21.9075C28.3935 21.9039 28.26 21.8933 28.1273 21.8755C27.9634 21.8515 27.6515 21.8755 27.6515 22.1555V23.3552C27.6515 23.815 27.8754 23.847 27.9914 23.879C28.3617 23.9603 28.7399 24.0005 29.1191 23.999C29.5672 24.0108 30.0119 23.9191 30.4188 23.7311C30.791 23.543 31.1215 23.2819 31.3905 22.9633C31.6956 22.6145 31.9537 22.2273 32.1583 21.8116C32.3796 21.369 32.5902 20.8798 32.7902 20.3439L33.0221 19.7081C32.5582 20.168 30.5107 22.0995 28.5272 21.9075ZM26.1678 12.8578C26.0829 12.6558 25.9668 12.4682 25.8239 12.302C25.6794 12.148 25.5154 12.0136 25.336 11.9021C25.1423 11.7702 24.936 11.6576 24.7202 11.5662C24.5004 11.481 24.2745 11.4128 24.0444 11.3622C23.781 11.304 23.5136 11.2652 23.2445 11.2463C22.9566 11.2169 22.634 11.2023 22.2768 11.2023C19.8934 11.2023 18.5364 11.9541 18.2058 13.4577C18.1917 13.5137 18.1899 13.5722 18.2006 13.629C18.2112 13.6858 18.234 13.7396 18.2675 13.7867C18.3009 13.8338 18.3442 13.8732 18.3943 13.902C18.4444 13.9308 18.5002 13.9484 18.5577 13.9536H20.0253C20.4252 13.9536 20.4252 13.8296 20.5772 13.4857C20.6438 13.2984 20.7633 13.1345 20.9211 13.0138C21.2961 12.7717 21.7396 12.6581 22.1848 12.6899C22.6 12.6475 23.017 12.7506 23.3645 12.9818C23.6296 13.2292 23.7862 13.5713 23.8004 13.9336C23.8004 14.4294 23.6484 14.7574 23.0326 14.7574C21.573 14.7054 20.0054 14.8693 19.1216 15.3772C18.6865 15.6428 18.3294 16.0186 18.0864 16.4667C17.8434 16.9147 17.7232 17.4191 17.7379 17.9285C17.7279 18.3254 17.8086 18.7193 17.9739 19.0803C18.1296 19.3939 18.3553 19.6676 18.6337 19.88C18.9259 20.1184 19.2632 20.2952 19.6254 20.3999C20.0347 20.5107 20.4572 20.5645 20.8811 20.5599C21.4514 20.5687 22.0196 20.4878 22.5647 20.3199C23.0465 20.1225 23.5019 19.866 23.9204 19.5561V19.8361C23.9204 20.112 24.0044 20.3599 24.3203 20.3599H26.0199C26.3638 20.3599 26.4438 20.116 26.4438 19.8121V14.5774C26.4458 14.2509 26.4231 13.9247 26.3758 13.6017C26.338 13.346 26.2682 13.096 26.1678 12.8578ZM23.8444 18.0005C23.8444 18.0005 23.4045 18.9203 21.8449 18.9203C21.4709 18.9375 21.1012 18.8353 20.7892 18.6284C20.6518 18.5217 20.5433 18.3825 20.4735 18.2232C20.4036 18.064 20.3747 17.8899 20.3893 17.7166C20.3721 17.4839 20.426 17.2515 20.5438 17.0501C20.6616 16.8487 20.8378 16.6879 21.0491 16.5889C21.68 16.3465 22.3532 16.2336 23.0286 16.257C23.132 16.2414 23.2375 16.2484 23.3379 16.2774C23.4383 16.3065 23.5312 16.357 23.6102 16.4254C23.6893 16.4938 23.7526 16.5785 23.7958 16.6737C23.8389 16.7688 23.861 16.8723 23.8604 16.9768L23.8444 18.0005Z" fill="#333333"/>
    <path d="M62.7102 14.6343C62.9072 14.9512 63.0116 15.3169 63.0116 15.69C63.0116 16.0632 62.9072 16.4289 62.7102 16.7458C62.3103 17.3536 60.1308 19.681 59.411 20.4288C58.7872 21.0767 57.9434 21.7325 57.1076 21.7325H39.7959C37.4525 21.7325 37.3125 20.9327 37.3125 19.1492V11.875C37.3125 10.0475 37.8524 9.51562 39.456 9.51562H57.1476C57.9754 9.51562 58.7152 9.93952 59.547 10.7953C60.2748 11.5271 62.4223 14.2024 62.7102 14.6343Z" fill="#33CCCC"/>
    <path d="M41.2446 12.3282V12.2842C41.2446 12.0483 41.2446 11.8203 40.8447 11.8203H39.393C39.0531 11.8203 39.0371 12.0043 39.0371 12.2922V14.2117C39.6097 13.4145 40.3672 12.7682 41.2446 12.3282Z" fill="white"/>
    <path d="M50.9661 19.267V19.1631V14.5323C50.9661 12.5941 50.1103 11.625 48.3987 11.625C47.9223 11.6306 47.457 11.7691 47.055 12.0249C46.6121 12.3012 46.2165 12.6468 45.8833 13.0486C45.7325 12.6143 45.4394 12.2437 45.0515 11.9969C44.6104 11.7538 44.1111 11.6362 43.6079 11.657C42.8677 11.6598 42.1493 11.9072 41.5644 12.3608C41.4364 12.4888 39.033 14.3603 39.033 16.3118V19.275C39.033 19.367 38.985 19.7269 39.3889 19.7269H40.8966C41.3644 19.7269 41.3205 19.419 41.3205 19.291V14.4923C41.5724 14.1524 42.0883 13.3406 42.94 13.3406C43.0763 13.3282 43.2134 13.3524 43.3371 13.4108C43.4609 13.4691 43.5668 13.5595 43.6439 13.6725C43.8149 14.0139 43.8896 14.3955 43.8598 14.7762V18.5152V19.283C43.8598 19.375 43.8118 19.7349 44.2157 19.7349H45.7074C46.1752 19.7349 46.1313 19.427 46.1313 19.299V19.1951V14.4763C46.4032 14.1364 46.9311 13.3246 47.7509 13.3246C47.8887 13.3133 48.0271 13.3379 48.1525 13.3961C48.278 13.4543 48.3862 13.544 48.4667 13.6565C48.6404 13.997 48.7166 14.379 48.6866 14.7602V18.4992V19.267C48.6866 19.359 48.6386 19.7189 49.0425 19.7189H50.5502C51.022 19.6949 50.9661 19.391 50.9661 19.267Z" fill="white"/>
    <path d="M59.2796 17.3933C59.0234 18.0822 58.554 18.6712 57.9397 19.0748C57.3254 19.4783 56.5984 19.6752 55.8644 19.6367C53.561 19.6367 52.0254 18.0691 52.0254 15.7177C52.0254 13.3663 53.625 11.7188 55.7845 11.7188C57.9439 11.7188 59.3836 13.2144 59.4755 15.6258C59.4755 15.9337 59.3996 16.2056 59.0117 16.2056H54.1249C54.1569 17.4973 54.7767 18.2051 55.8804 18.2051C56.1735 18.2124 56.4625 18.1358 56.7133 17.9841C56.9642 17.8325 57.1664 17.6122 57.2961 17.3493C57.3472 17.2749 57.4159 17.2144 57.4962 17.1732C57.5765 17.132 57.6658 17.1115 57.756 17.1134H59.0157C59.0535 17.1116 59.0912 17.1183 59.126 17.1331C59.1608 17.1479 59.1919 17.1703 59.2169 17.1988C59.2418 17.2272 59.2601 17.2609 59.2702 17.2973C59.2804 17.3338 59.2822 17.372 59.2756 17.4093L59.2796 17.3933ZM55.7925 13.2104C54.8767 13.2104 54.2568 13.8462 54.1209 14.8939H57.4001C57.3161 13.9782 56.8202 13.2104 55.7925 13.2104Z" fill="white"/>
</svg>
